<svg width="370" height="107" viewBox="0 0 370 107" fill="none" xmlns="http://www.w3.org/2000/svg">
<g clip-path="url(#clip0_1_6)">
<path d="M308.74 37.85C308.74 37.85 308.74 37.86 308.74 37.87C308.74 37.87 308.74 37.86 308.74 37.85ZM308.99 37.73L308.5 37.99L308.99 37.72V37.73Z" fill="white"/>
<path d="M106.93 56.49C107.13 56.79 107.3 56.68 107.55 56.4C108.51 55.52 111.33 52.67 112.61 51.37C112.9 51.08 112.89 50.95 112.64 50.61C111.64 49.17 108.9 46.08 107.51 45.33C107.14 45.14 107.09 45.14 106.71 45.39C105.15 46.58 103.16 48.61 101.97 49.99C101.4 50.66 101.36 50.8 101.6 51C103.03 52.14 105.29 54.33 106.93 56.48V56.49Z" fill="white"/>
<path d="M242.6 80.12C242.6 80.12 242.6 80.1 242.61 80.09C243.48 78.05 243.9 75.72 243.8 73.2C243.76 72.29 243.68 70.39 242.8 67.62C241.8 64.46 240.32 61.94 240.04 61.48C238.33 58.63 236.27 56.37 234.45 54.72C234.3 54.58 234.07 54.59 233.93 54.74C232.89 55.88 231.75 57.36 230.7 59.2C228.75 62.64 228.01 65.89 227.7 68.12C227.68 68.26 227.75 68.4 227.87 68.48C230.06 69.85 241.32 76.92 241.44 77.02C241.52 77.09 241.57 77.17 241.57 77.17C241.6 77.22 241.61 77.25 241.61 77.25C241.64 77.34 241.64 77.44 241.61 77.54C241.55 77.73 241.37 77.86 241.17 77.86H238.99H227.07C225.07 77.86 223.4 77.81 221.59 77.13C219.14 76.21 217.85 73.12 216.84 70.92C216.33 69.82 215.93 68.95 215.58 68.98C215.56 68.98 215.45 68.99 215.36 69.06C215.23 69.16 215.21 69.34 215.21 69.59V69.8C215.21 70.08 215.2 70.37 215.18 70.56C215.15 70.88 215.11 71.16 215.06 71.44C215.06 71.46 214.94 72.04 214.75 72.61C213.99 74.81 212.43 76.13 212.37 76.19C211.72 76.69 211.02 77.1 210.29 77.41C209.38 77.8 203.1 78.83 200.27 77.6L200.19 77.57C197.44 76.4 196.08 73.47 194.91 70.92C194.4 69.82 194 68.94 193.65 68.98C193.63 68.98 193.52 68.99 193.43 69.06C193.3 69.16 193.28 69.34 193.28 69.59V69.8C193.28 70.08 193.27 70.37 193.25 70.56C193.22 70.87 193.18 71.16 193.13 71.44C193.13 71.46 193.01 72.05 192.82 72.61C192.31 74.08 191.29 75.46 190.16 76.24C189.16 76.84 188.98 76.91 187.75 77.21C187.69 77.21 183.65 77.85 178.99 77.88L125.33 77.98H123.46C123.14 77.98 122.87 77.73 122.84 77.41C122.58 74.48 121.98 71.93 121.05 69.84C120.08 67.65 118.91 65.83 117.58 64.43C116.24 63.03 114.9 61.92 113.59 61.13C112.4 60.41 111 59.77 109.43 59.2C109.21 59.12 108.97 59.18 108.81 59.34C107.29 60.92 105.89 62.64 104.65 64.46C102.74 67.26 102.06 68.79 101.4 70.26L101.32 70.45C100.36 72.6 99.72 74.94 99.41 77.42C99.37 77.73 99.11 77.97 98.79 77.97H75.57C75.21 77.97 74.86 77.94 74.52 77.89H74.48C70.84 77.48 68.64 74.39 67.25 71.32C66.9 70.56 66.58 69.83 66.26 69.41C66.14 69.25 65.98 69.07 65.83 69.08C65.81 69.08 65.7 69.09 65.61 69.16C65.48 69.26 65.46 69.44 65.46 69.69V69.9C65.46 70.18 65.45 70.47 65.43 70.66C65.4 70.98 65.36 71.26 65.31 71.54C65.31 71.56 65.19 72.15 65 72.71C64.49 74.18 63.47 75.56 62.34 76.34C62.06 76.53 61.69 76.73 61.27 76.92C59.54 77.7 57.7 77.93 53.08 77.97H46.49V77.94C44.79 77.94 41.64 77.94 38.49 77.94C35.31 77.94 31.99 78.3 28.89 77.45C25.26 76.46 23.44 73.8 21.96 70.52C21.93 70.44 21.89 70.35 21.84 70.24C21.67 69.79 21.37 69.05 20.98 69.07C20.96 69.07 20.86 69.08 20.76 69.15C20.4 69.42 20.47 69.71 20.62 70.2C20.8 70.79 20.97 71.39 21.18 72.18C21.55 73.58 21.88 75.01 22.16 76.43C24.1 86.2 16.53 93.71 9.46999 97.17C7.00999 98.38 5.69999 98.19 5.14999 98.11H5.07999C3.51999 97.89 2.04999 97.12 1.04999 95.99L0.989988 95.92C0.809988 95.71 0.539988 95.4 0.299988 95.39C0.249988 95.39 0.189988 95.4 0.0999882 95.49C-0.150012 95.74 0.239988 96.54 0.339988 96.78C0.719988 97.7 1.25999 98.56 1.84999 99.35C5.72999 104.55 12.88 108.59 19.21 105.14C19.55 104.95 27.59 100.86 29.4 92.04C29.56 91.28 29.72 90.24 29.75 88.99C29.75 88.68 30.02 88.43 30.33 88.43L39.86 88.41H52.13H52.45C52.71 88.41 53.02 88.41 53.35 88.41H53.97C58.71 88.3 62.06 87.42 63.64 85.83C65.08 84.39 65.96 82.61 66.28 80.53C66.48 79.21 66.6 77.9 66.65 76.65C66.65 76.54 66.67 76.22 66.9 76.2C67.12 76.18 67.18 76.48 67.2 76.58C67.89 80.12 68.89 83.71 71.46 85.93C73.96 88.1 77.66 88.4 81.29 88.4H124.92C125.46 88.4 178.82 88.3 179.21 88.29C187.15 88.29 189.33 87.83 191.46 85.7C191.85 85.32 192.14 84.95 192.26 84.79C193.23 83.53 193.85 82.05 194.1 80.4C194.3 79.08 194.42 77.77 194.47 76.52C194.47 76.41 194.49 76.09 194.72 76.07C194.95 76.04 195 76.35 195.02 76.45C195.09 76.78 195.15 77.12 195.21 77.45C195.62 79.62 196.04 81.87 197.09 83.87C198.57 86.69 201.95 88.4 205.93 88.33C210.1 88.25 213.7 86.28 215.12 83.31C216.16 81.14 216.33 78.66 216.41 76.52C216.41 76.41 216.43 76.09 216.66 76.07C216.89 76.06 216.94 76.35 216.96 76.45C217.01 76.72 217.07 77.01 217.12 77.3C217.67 80.21 218.36 83.84 220.6 85.68C223.5 88.05 227.87 88.62 230.74 88.38C235.02 88.02 238.54 86.08 240.85 83.09C241.17 82.67 241.47 82.23 241.74 81.78C241.75 81.76 241.76 81.74 241.77 81.73C242.08 81.21 242.35 80.67 242.59 80.1L242.6 80.12ZM117.43 77.69C117.37 77.85 117.23 77.95 117.06 77.95H107.44H107.18C105.3 77.95 103.24 77.9 102.08 76.78C101.25 75.98 101.31 74.52 101.43 73.5C101.54 72.58 101.89 70.85 102.41 69.86C102.7 69.31 102.81 69.21 103.38 69.4C106.32 70.36 109.64 72.15 111.36 73.14C113.72 74.49 115.67 75.84 117.32 77.27C117.45 77.38 117.49 77.55 117.43 77.7V77.69Z" fill="white"/>
<path d="M203.71 74.33H203.65V74.7H203.71V74.33Z" fill="white"/>
<path d="M369.26 77.46V77.31C368.88 70.46 365.24 64.18 359.75 60.91C358.58 60.21 357.21 59.57 355.67 58.99C355.42 58.9 355.13 58.97 354.95 59.16C353.77 60.44 352.72 61.67 351.84 62.83C350.86 64.12 349.88 65.65 348.9 67.37C347.93 69.09 347.09 71.02 346.42 73.1C345.99 74.43 345.69 75.84 345.54 77.26C345.5 77.64 345.18 77.93 344.79 77.93C342.52 77.92 339.73 77.88 336.95 77.85C333.18 77.81 329.3 77.77 326.78 77.76H325.2C321.5 77.76 317.81 77.76 314.11 77.76H313.67C313.04 77.76 312.4 77.76 311.76 77.76H310.51C309.97 77.76 309.53 77.35 309.48 76.81C309.23 74.02 308.65 71.59 307.76 69.6C306.79 67.43 305.62 65.61 304.27 64.19C302.92 62.77 301.58 61.66 300.28 60.89C299.1 60.19 297.71 59.53 296.15 58.95C295.93 58.87 295.68 58.93 295.52 59.1C294.32 60.39 293.26 61.64 292.38 62.82C291.4 64.11 290.42 65.64 289.44 67.36C288.47 69.08 287.63 71.01 286.96 73.09C286.29 75.16 285.95 77.35 285.95 79.61C285.95 81.45 286.38 82.94 287.23 84.06C288.08 85.18 289.2 86.06 290.56 86.65C291.9 87.24 293.4 87.65 295 87.87C296.81 88.12 298.38 88.19 302.59 88.19H306.3C306.68 88.19 307.15 88.45 307.26 88.83C307.5 89.62 306.29 90.33 305.77 90.65C304.89 91.2 303.96 91.58 303.01 91.96C300.04 93.12 296.93 93.91 293.76 94.25C290.74 94.58 287.73 94.49 284.85 93.45C283.09 92.82 281.95 92.06 281.13 90.93C280.2 89.65 279.73 87.69 279.85 86.2V86.11C279.88 85.84 279.92 85.42 279.77 85.25C279.74 85.22 279.68 85.17 279.55 85.17C279.13 85.17 278.11 87.33 277.85 90.19C277.78 90.93 277.78 91.55 277.79 92.28C277.79 93.34 277.85 94.38 277.95 95.41C278.24 98.26 279.19 100.71 280.78 102.71C282.36 104.69 284.89 105.87 288.29 106.21C288.52 106.22 290.35 106.33 291.86 106.25C297.99 105.94 302.46 101.89 302.51 101.85C305.04 99.53 306.27 96.84 306.73 95.83L306.77 95.75C307.16 94.89 307.5 94 307.78 93.09C308.26 91.5 308.62 89.98 308.86 88.58C308.9 88.36 309.08 88.2 309.31 88.2C309.76 88.2 312.91 88.2 315.95 88.2C319 88.2 322.15 88.2 322.6 88.2C322.6 88.2 345.35 88.18 358.91 88.18C362.46 88.18 365.14 87.26 366.88 85.44C368.61 83.62 369.4 80.93 369.24 77.44L369.26 77.46ZM304.21 77.56C304.15 77.72 304.01 77.82 303.84 77.82H294.22C294.13 77.82 294.05 77.82 293.96 77.82C292.08 77.82 290.02 77.77 288.86 76.65C288.03 75.85 288.09 74.39 288.21 73.37C288.32 72.45 288.67 70.72 289.19 69.73C289.48 69.18 289.59 69.08 290.16 69.27C293.1 70.23 296.42 72.02 298.14 73.01C300.5 74.36 302.45 75.71 304.1 77.14C304.23 77.25 304.27 77.42 304.21 77.57V77.56ZM363.66 77.56C363.6 77.71 363.46 77.81 363.29 77.81H353.67C353.58 77.81 353.5 77.81 353.41 77.81C351.53 77.81 349.47 77.76 348.31 76.64C347.48 75.84 347.54 74.38 347.66 73.36C347.77 72.44 348.12 70.71 348.64 69.72C348.93 69.17 349.04 69.07 349.61 69.26C352.55 70.22 355.87 72.01 357.59 73C359.95 74.35 361.9 75.7 363.55 77.13C363.68 77.24 363.72 77.41 363.66 77.56Z" fill="white"/>
<path d="M352.8 56.49C353 56.79 353.17 56.68 353.42 56.4C354.38 55.52 357.2 52.67 358.48 51.37C358.77 51.08 358.76 50.95 358.51 50.61C357.51 49.17 354.77 46.08 353.38 45.33C353.01 45.14 352.96 45.14 352.58 45.39C351.02 46.58 349.03 48.61 347.84 49.99C347.27 50.66 347.23 50.8 347.47 51C348.9 52.14 351.16 54.33 352.8 56.48V56.49Z" fill="white"/>
<path d="M254.72 70.82C254.74 70.59 254.77 70.23 254.65 70.1C254.63 70.07 254.58 70.04 254.48 70.04C254.16 70.04 253.26 71.85 253.04 74.36C252.98 75 252.98 75.54 252.99 76.17C252.99 77.08 253.04 77.99 253.13 78.88C253.38 81.34 254.2 83.46 255.58 85.19C256.94 86.9 259.13 87.92 262.07 88.21C262.1 88.21 263.79 88.31 265.15 88.24C270.44 87.98 274.33 84.47 274.37 84.44C276.55 82.44 277.6 80.14 278.06 79.16C278.4 78.42 278.69 77.64 278.93 76.85C279.78 74.02 280.19 71.5 280.15 69.36C280.08 66.88 279.4 64.66 278.13 62.78C277.59 61.98 277.04 61.27 276.44 60.61L276.4 60.57C276.09 60.23 275.16 59.18 273.64 58.01C273.4 57.82 273.15 57.64 272.91 57.46C272.67 57.29 272.42 57.12 272.18 56.95C271.94 56.79 271.7 56.63 271.45 56.48C271.21 56.33 270.97 56.18 270.73 56.04C270.5 55.9 270.26 55.76 270.02 55.63C269.79 55.5 269.56 55.37 269.33 55.25C269.11 55.13 268.88 55.01 268.65 54.89C268.43 54.78 268.21 54.66 267.99 54.55C267.91 54.51 267.81 54.47 267.7 54.43C267.57 54.38 267.42 54.41 267.31 54.5C266.47 55.31 265.5 56.48 264.6 58.07C263.16 60.61 262.78 63.02 262.67 64.5C262.66 64.65 262.74 64.79 262.87 64.85L278.38 72.6C278.5 72.66 278.59 72.77 278.61 72.91C278.63 73.06 278.58 73.21 278.47 73.32C274.24 77.37 265.35 79 259.07 76.88C257.66 76.4 256.6 75.74 255.84 74.69C254.77 73.22 254.71 71.57 254.74 70.81L254.72 70.82Z" fill="white"/>
<path d="M56.16 102.84C56.36 103.14 56.53 103.03 56.78 102.75C57.74 101.87 60.56 99.02 61.84 97.72C62.13 97.43 62.12 97.3 61.87 96.96C60.87 95.52 58.13 92.43 56.74 91.68C56.37 91.49 56.32 91.49 55.94 91.74C54.38 92.93 52.39 94.96 51.2 96.34C50.63 97.01 50.59 97.15 50.83 97.35C52.26 98.49 54.52 100.68 56.16 102.83V102.84Z" fill="white"/>
<path d="M66.2001 102.84C66.4001 103.14 66.5701 103.03 66.8201 102.75C67.7801 101.87 70.6001 99.02 71.8801 97.72C72.1701 97.43 72.1601 97.3 71.9101 96.96C70.9101 95.52 68.1701 92.43 66.7801 91.68C66.4101 91.49 66.3601 91.49 65.9801 91.74C64.4201 92.93 62.4301 94.96 61.2401 96.34C60.6701 97.01 60.6301 97.15 60.8701 97.35C62.3001 98.49 64.5601 100.68 66.2001 102.83V102.84Z" fill="white"/>
<path d="M65.57 11.51C64.7 9.4 63.43 7.55 61.8 6.01C60.19 4.49 58.26 3.31 56.08 2.51C53.88 1.7 51.47 1.29 48.91 1.29C46.35 1.29 43.9 1.75 41.52 2.64C39.1 3.55 36.93 4.88 35.06 6.57C33.09 8.35 31.55 10.48 30.47 12.88C29.32 15.46 28.73 18.29 28.73 21.32C28.73 23.89 29.21 26.33 30.16 28.59C31.08 30.77 32.4 32.7 34.1 34.34C37.52 37.63 42.19 39.44 47.26 39.44C49.78 39.44 52.25 38.94 54.6 37.96C56.95 36.98 59.06 35.56 60.88 33.75C62.76 31.88 64.24 29.67 65.26 27.18C66.35 24.55 66.9 21.67 66.9 18.65C66.9 16.08 66.45 13.68 65.55 11.51H65.57ZM38.22 16.81C38.22 13.87 38.78 11.42 39.83 9.74C40.99 7.88 42.79 6.94 45.16 6.94C46.56 6.94 48.06 7.33 49.49 8.06C50.97 8.82 52.38 9.94 53.57 11.31C54.85 12.79 55.87 14.51 56.58 16.43C57.36 18.53 57.76 20.79 57.76 23.16C57.76 25.87 57.16 28.33 56.07 30.08C55.49 31.01 54.77 31.74 53.94 32.23C53.04 32.76 51.99 33.03 50.82 33.03C48.67 33.03 46.71 32.46 45.01 31.35C43.51 30.37 42.2 28.96 41.12 27.16C38.99 23.63 38.23 19.5 38.23 16.8L38.22 16.81Z" fill="white"/>
<path d="M106.86 11.51C105.99 9.4 104.72 7.55 103.09 6.01C101.48 4.49 99.55 3.31 97.37 2.51C95.17 1.7 92.76 1.29 90.2 1.29C87.64 1.29 85.19 1.75 82.81 2.64C80.39 3.55 78.22 4.88 76.35 6.57C74.38 8.35 72.84 10.48 71.76 12.88C70.61 15.46 70.02 18.29 70.02 21.32C70.02 23.89 70.5 26.33 71.45 28.59C72.37 30.77 73.69 32.7 75.39 34.34C78.81 37.63 83.48 39.44 88.55 39.44C91.07 39.44 93.54 38.94 95.89 37.96C98.24 36.98 100.35 35.56 102.17 33.75C104.05 31.88 105.53 29.67 106.56 27.18C107.65 24.54 108.2 21.67 108.2 18.65C108.2 16.08 107.75 13.68 106.85 11.51H106.86ZM92.11 33.04C89.96 33.04 88 32.47 86.3 31.36C84.8 30.38 83.49 28.97 82.41 27.17C80.28 23.64 79.52 19.51 79.52 16.81C79.52 13.87 80.08 11.42 81.13 9.74C82.29 7.88 84.09 6.94 86.46 6.94C87.86 6.94 89.36 7.33 90.79 8.06C92.27 8.82 93.68 9.94 94.87 11.31C96.15 12.79 97.17 14.51 97.88 16.43C98.66 18.53 99.06 20.79 99.06 23.16C99.06 25.87 98.46 28.33 97.37 30.08C96.79 31.01 96.07 31.74 95.24 32.23C94.34 32.76 93.29 33.03 92.12 33.03L92.11 33.04Z" fill="white"/>
<path d="M183.7 22.71C183 21.51 181.99 20.49 180.62 19.58C178.17 17.96 174.93 16.97 171.49 15.92C170.71 15.68 169.9 15.44 169.1 15.18C166.61 14.43 164.26 13.73 162.61 12.78C161.02 11.86 160.28 10.81 160.28 9.45C160.28 8.93 160.4 7.93 161.22 7.08C162.21 6.05 163.59 5.53 165.32 5.53C167.27 5.53 169.64 6.23 171.68 7.39C175.44 9.55 178.01 12.18 180 15.91L180.03 15.96C180.19 16.25 180.49 16.44 180.82 16.44C180.87 16.44 180.91 16.44 180.96 16.43C181.34 16.37 181.63 16.09 181.71 15.71L183.56 7.12C183.64 6.74 183.47 6.36 183.14 6.16C180.67 4.6 178 3.4 175.19 2.59C172.49 1.81 169.58 1.42 166.54 1.42C161.07 1.42 157.71 3.42 155.86 5.1C153.51 7.22 152.16 10.1 152.16 13C152.16 14.85 152.5 16.41 153.21 17.77C153.88 19.06 154.87 20.16 156.25 21.14C158.77 22.93 162.4 24.18 166.88 25.62C170.25 26.64 172.75 27.43 174.3 28.35C175 28.76 175.49 29.19 175.79 29.66C176.08 30.11 176.22 30.65 176.22 31.31C176.22 32.2 175.73 33.04 174.84 33.68C173.8 34.43 172.29 34.84 170.59 34.84C167.5 34.84 164.25 33.72 161.44 31.7C157.89 29.14 155.75 26.46 154.49 22.99L154.46 22.92C154.33 22.56 154 22.32 153.62 22.32C153.6 22.32 153.58 22.32 153.56 22.32C153.16 22.35 152.83 22.63 152.74 23.03L150.63 32.04C150.55 32.38 150.67 32.73 150.93 32.95C153.39 35.02 156.23 36.62 159.39 37.71C162.41 38.75 165.59 39.28 168.82 39.28C170.64 39.28 172.55 39.02 174.35 38.53C176.25 38.01 177.98 37.27 179.48 36.31C181.12 35.26 182.42 34 183.33 32.57C184.35 30.98 184.86 29.21 184.86 27.31C184.86 25.54 184.48 24.02 183.69 22.68L183.7 22.71Z" fill="white"/>
<path d="M353.77 8.68H364.33C365.36 8.68 366.15 8.71 366.88 8.79C367.13 8.81 367.38 8.85 367.64 8.91C367.7 8.92 367.77 8.94 367.83 8.95C367.98 8.99 368.14 9.03 368.3 9.08C368.32 9.08 368.35 9.1 368.37 9.1C368.41 9.11 368.46 9.13 368.5 9.14C368.53 9.14 368.56 9.16 368.6 9.16C368.62 9.16 368.65 9.16 368.69 9.16C368.79 9.16 368.88 9.14 368.97 9.09C369.17 8.98 369.3 8.78 369.3 8.55V4.75V3.33C369.31 3.16 369.28 3.01 369.2 2.87C369.04 2.58 368.75 2.4 368.42 2.4H344.55C344.22 2.4 343.93 2.58 343.77 2.87C343.59 3.21 343.7 3.52 343.78 3.77C343.8 3.81 343.81 3.86 343.82 3.91C343.91 4.2 343.99 4.48 344.05 4.77C344.08 4.89 344.11 5.01 344.13 5.12C344.23 5.59 344.3 6.05 344.35 6.51C344.47 7.69 344.52 8.92 344.54 11.06V11.62C344.54 12.24 344.56 12.86 344.57 13.48C344.57 13.85 344.61 14.22 344.7 14.57C345.43 17.32 348.54 18.71 351.13 19.21C351.33 19.25 351.31 19.54 351.1 19.55C350.33 19.58 349.53 19.65 348.72 19.78C346.9 20.06 345.85 21 345.42 21.42C344.68 22.16 344.54 23.34 344.52 24.94C344.52 25.26 344.52 25.86 344.52 26.19C344.52 26.4 344.52 26.94 344.52 27.15C344.52 27.17 344.52 27.19 344.52 27.22V27.56C344.52 27.77 344.52 27.95 344.52 28.11V28.31V29.8C344.5 31.77 344.44 32.92 344.33 34.06C344.28 34.52 344.21 34.98 344.11 35.45C344.08 35.57 344.06 35.69 344.03 35.8C343.96 36.08 343.88 36.37 343.8 36.65C343.79 36.7 343.77 36.74 343.76 36.79C343.67 37.04 343.57 37.35 343.75 37.69C343.91 37.98 344.2 38.16 344.52 38.16H368.39C368.72 38.16 369.01 37.98 369.17 37.69C369.25 37.55 369.28 37.4 369.27 37.23V35.5V32C369.27 31.77 369.15 31.57 368.94 31.46C368.85 31.41 368.76 31.39 368.66 31.39C368.63 31.39 368.59 31.39 368.56 31.39C368.53 31.39 368.49 31.4 368.46 31.41C368.43 31.41 368.38 31.43 368.34 31.45C368.32 31.45 368.29 31.47 368.27 31.47C368.11 31.52 367.96 31.56 367.8 31.6C367.74 31.62 367.67 31.63 367.61 31.64C367.36 31.69 367.1 31.73 366.85 31.76C366.11 31.83 365.33 31.87 364.3 31.87H353.74C353.64 31.87 353.56 31.81 353.52 31.72V27.33L353.5 23.15V22.89C353.5 22.75 353.62 22.64 353.76 22.64H353.85H361.96C362.87 22.64 363.56 22.67 364.21 22.73C364.43 22.75 364.65 22.79 364.88 22.83C364.94 22.84 364.99 22.85 365.05 22.87C365.18 22.9 365.32 22.94 365.46 22.98C365.48 22.98 365.5 22.99 365.52 23C365.56 23.01 365.6 23.03 365.64 23.04C365.66 23.04 365.7 23.05 365.73 23.06C365.75 23.06 365.78 23.06 365.81 23.06C365.9 23.06 365.99 23.04 366.07 22.99C366.26 22.89 366.38 22.7 366.38 22.48V19.02V17.55C366.39 17.4 366.36 17.26 366.29 17.13C366.15 16.86 365.88 16.7 365.58 16.7H353.76C353.62 16.7 353.51 16.59 353.51 16.45V16.39C353.51 16.24 353.51 12.46 353.51 8.91C353.51 8.77 353.62 8.66 353.76 8.66L353.77 8.68Z" fill="white"/>
<path d="M222.62 9.02C221.95 7.64 220.94 6.45 219.62 5.48C217.26 3.74 213.82 2.7 210.19 2.62C208.81 2.59 207.45 2.59 206.41 2.59C205.83 2.59 205.25 2.59 204.67 2.59C204.09 2.59 203.51 2.59 202.93 2.59H194.81C194.71 2.59 194.64 2.59 194.59 2.59H191.23C190.89 2.59 190.59 2.77 190.43 3.07C190.24 3.42 190.35 3.74 190.43 4C190.45 4.05 190.46 4.09 190.48 4.14C190.57 4.44 190.65 4.74 190.72 5.04C190.75 5.16 190.78 5.29 190.8 5.41C190.9 5.9 190.98 6.39 191.03 6.87C191.17 8.27 191.23 9.76 191.23 11.71V29.02C191.23 30.97 191.17 32.46 191.03 33.86C190.98 34.34 190.91 34.83 190.8 35.32C190.77 35.44 190.75 35.57 190.72 35.69C190.65 35.98 190.57 36.28 190.48 36.59C190.47 36.64 190.45 36.69 190.43 36.73C190.34 36.99 190.23 37.31 190.43 37.66C190.59 37.96 190.89 38.14 191.23 38.14C192.37 38.14 194.03 38.14 194.48 38.14H194.61H200.57C200.91 38.14 201.21 37.96 201.37 37.66C201.46 37.49 201.49 37.31 201.46 37.1C201.46 37.05 201.44 37 201.43 36.94C201.41 36.88 201.39 36.8 201.36 36.72C201.34 36.67 201.33 36.63 201.31 36.58C201.22 36.28 201.14 35.98 201.07 35.68C201.04 35.56 201.01 35.43 200.99 35.31C200.99 35.28 200.85 34.63 200.76 33.85C200.69 33.19 200.59 30.37 200.57 28.01V24.97C200.57 24.91 200.62 24.88 200.66 24.88C200.67 24.88 200.68 24.88 200.69 24.88C203.24 25.83 206.11 26.33 208.98 26.33C210.73 26.33 212.47 26.15 214.15 25.79C218.02 24.97 220.65 23.18 222.19 20.31C223.18 18.47 223.68 16.34 223.68 14C223.68 12.14 223.32 10.46 222.62 9.01V9.02ZM212.8 17.88C212.15 18.97 211.05 19.83 209.72 20.29C208.94 20.56 208.09 20.69 207.18 20.69C207.18 20.69 206.47 20.69 205.71 20.58C203.71 20.27 201.65 19.07 200.81 18.54C200.66 18.44 200.57 18.28 200.57 18.1C200.57 14.54 200.57 10.98 200.57 7.41C200.57 7.15 200.75 6.93 201.01 6.89C203.34 6.5 205.37 6.59 206.49 6.73C207.35 6.84 207.88 6.98 208.27 7.1C209.59 7.49 210.73 8.14 211.56 8.99C212.82 10.26 213.55 12.12 213.62 14.22C213.67 15.64 213.39 16.91 212.81 17.88H212.8Z" fill="white"/>
<path d="M339.47 36.47C339.32 36.04 338.98 35.83 338.84 35.76C337.02 34.77 335.36 33.58 333.91 32.22C331.33 29.79 329.76 27.68 328.58 26.11C328.22 25.63 327.92 25.22 327.61 24.85L326.72 23.76C329.11 22.97 331.19 21.63 332.73 19.9C334.58 17.82 335.56 15.3 335.56 12.62C335.56 10.94 335.33 9.56 334.85 8.39C334.29 7.04 333.41 5.96 332.14 5.1C330.83 4.21 329.13 3.56 326.95 3.13C324.72 2.69 322.03 2.47 318.72 2.47H303.51C303.19 2.47 302.91 2.68 302.82 2.99C302.75 3.21 302.79 3.44 302.92 3.63L302.95 3.67C303.11 3.9 303.26 4.11 303.35 4.36C303.42 4.57 303.5 4.82 303.56 5.09C303.77 5.96 304.01 7.83 303.99 11.81V29.14C303.98 32.11 303.78 33.98 303.62 35.02C303.6 35.13 303.58 35.24 303.55 35.35C303.52 35.48 303.5 35.6 303.47 35.72C303.4 36.02 303.32 36.32 303.23 36.62C303.22 36.67 303.2 36.72 303.18 36.77C303.1 37.01 303 37.29 303.16 37.59C303.3 37.85 303.55 38 303.83 38H307H313.07C313.36 38 313.61 37.85 313.74 37.59C313.82 37.45 313.84 37.29 313.82 37.13C313.82 37.08 313.8 37.04 313.79 37C313.77 36.93 313.75 36.86 313.72 36.78C313.7 36.73 313.69 36.68 313.67 36.63C313.58 36.33 313.5 36.02 313.43 35.73C313.4 35.61 313.37 35.48 313.35 35.36L313.33 35.25C313.23 34.69 313.16 34.15 313.1 33.61C313.02 32.72 312.97 31.77 312.94 30.7C312.94 30.26 312.94 29.82 312.94 29.37V23.2C312.94 23.12 312.98 23.05 313.04 23.01C313.1 22.97 313.18 22.95 313.26 22.98C314.35 23.37 315.64 24.18 317.21 25.47C319.83 27.69 323.31 33.09 325.15 36.11C325.39 36.51 325.47 36.73 325.54 36.94C325.58 37.06 325.6 37.16 325.62 37.27C325.66 37.46 325.69 37.65 325.85 37.8C325.98 37.92 326.14 37.99 326.36 38.01H338.51C338.82 38.01 339.1 37.87 339.28 37.61C339.5 37.3 339.56 36.85 339.44 36.48L339.47 36.47ZM325.45 17.95C324.78 19.07 323.66 19.95 322.29 20.42C320.64 20.99 319.25 20.86 318.21 20.72C315.93 20.4 314.21 19.4 313.16 18.62C313.03 18.52 312.95 18.36 312.95 18.2C312.95 14.57 312.95 10.94 312.95 7.31C312.95 7.06 313.13 6.84 313.38 6.79C313.75 6.72 314.21 6.64 314.73 6.58C316.76 6.36 321.34 5.87 324.18 8.88C326.03 10.84 326.25 13.35 326.28 14.2C326.33 15.65 326.04 16.94 325.45 17.94V17.95Z" fill="white"/>
<path d="M145.05 10.45C144.15 8.59 142.82 7.03 141.12 5.8C138.19 3.7 134.1 2.59 129.27 2.59H120.07H118.52H115.99H112.91C112.57 2.59 112.27 2.77 112.11 3.07C111.92 3.42 112.03 3.74 112.12 4C112.14 4.05 112.15 4.09 112.17 4.14C112.26 4.44 112.34 4.74 112.41 5.04C112.44 5.16 112.47 5.29 112.49 5.41C112.59 5.9 112.67 6.39 112.72 6.87C112.86 8.27 112.92 9.76 112.92 11.71V29.02C112.92 30.97 112.86 32.46 112.72 33.86C112.67 34.34 112.6 34.83 112.49 35.32C112.46 35.44 112.44 35.57 112.41 35.69C112.34 35.98 112.26 36.29 112.17 36.59C112.16 36.64 112.14 36.69 112.12 36.73C112.03 36.99 111.92 37.31 112.11 37.66C112.27 37.96 112.57 38.14 112.91 38.14H116.29H119.24H127.18C130.19 38.14 132.98 37.55 135.48 36.38C137.82 35.29 139.87 33.72 141.57 31.7C143.18 29.8 144.42 27.57 145.27 25.08C146.1 22.66 146.52 20.09 146.52 17.45C146.52 14.81 146.03 12.44 145.06 10.44L145.05 10.45ZM122.67 31.65C122.67 23.85 122.67 16.05 122.67 8.25C122.67 8.02 122.82 7.82 123.04 7.75C123.93 7.46 124.94 7.24 126.1 7.23C126.28 7.23 126.46 7.23 126.63 7.23H126.66C127.99 7.23 129.25 7.48 130.4 7.99C131.61 8.52 132.67 9.31 133.56 10.35C134.53 11.48 135.29 12.9 135.81 14.57C136.39 16.41 136.68 18.55 136.68 20.93C136.68 22.86 136.5 24.63 136.15 26.18C135.79 27.76 135.26 29.11 134.57 30.21C133.13 32.5 130.98 33.65 128.2 33.65C126.88 33.65 125.74 33.46 124.74 33.08C124.38 32.94 124.06 32.78 124.06 32.78C123.57 32.54 123.18 32.27 122.89 32.05C122.76 31.95 122.68 31.8 122.68 31.63L122.67 31.65Z" fill="white"/>
<path d="M263.89 36.58C263.8 36.28 263.72 35.98 263.65 35.68C263.62 35.56 263.59 35.43 263.57 35.31C263.47 34.82 263.39 34.33 263.34 33.85C263.2 32.45 263.14 30.96 263.14 29.01V11.72C263.14 9.77 263.2 8.28 263.34 6.88C263.39 6.4 263.46 5.91 263.57 5.42C263.6 5.3 263.62 5.17 263.65 5.05C263.72 4.76 263.8 4.46 263.89 4.15C263.9 4.1 263.92 4.05 263.94 4.01C264.03 3.75 264.14 3.43 263.95 3.08C263.79 2.78 263.49 2.6 263.15 2.6C262.01 2.6 260.35 2.6 259.9 2.6H259.77H253.81C253.47 2.6 253.17 2.78 253.01 3.08C252.92 3.25 252.89 3.43 252.92 3.64C252.92 3.68 252.94 3.74 252.95 3.8C252.97 3.87 252.99 3.94 253.02 4.02C253.04 4.07 253.05 4.11 253.07 4.16C253.16 4.46 253.24 4.76 253.31 5.06C253.34 5.18 253.37 5.31 253.39 5.43C253.49 5.92 253.57 6.41 253.62 6.89C253.76 8.29 253.82 9.78 253.82 11.73V13.52C253.82 14.53 253.82 15.45 253.82 16.67C253.81 16.7 253.77 16.73 253.73 16.73H238.46C238.46 16.73 238.39 16.7 238.38 16.67C238.38 15.73 238.38 14.97 238.38 14.22C238.38 13.45 238.38 12.68 238.38 11.73C238.38 10.2 238.4 8.55 238.57 6.89C238.62 6.41 238.69 5.92 238.8 5.43C238.83 5.31 238.85 5.18 238.88 5.06C238.95 4.77 239.03 4.46 239.12 4.16C239.13 4.11 239.15 4.06 239.17 4.02C239.2 3.94 239.22 3.87 239.24 3.79C239.25 3.75 239.27 3.69 239.27 3.63C239.3 3.44 239.27 3.25 239.18 3.08C239.02 2.78 238.72 2.6 238.38 2.6H235.4H233.35C232.82 2.6 232.56 2.6 232.42 2.61H229.04C228.7 2.61 228.4 2.79 228.24 3.09C228.05 3.44 228.16 3.76 228.24 4.02C228.26 4.07 228.27 4.11 228.29 4.16C228.38 4.46 228.46 4.76 228.53 5.06C228.56 5.18 228.59 5.31 228.61 5.43C228.71 5.92 228.79 6.41 228.84 6.89C228.98 8.29 229.04 9.78 229.04 11.73V29.02C229.04 30.97 228.98 32.46 228.84 33.86C228.79 34.34 228.72 34.83 228.61 35.32C228.58 35.44 228.56 35.57 228.53 35.69C228.46 35.98 228.38 36.29 228.29 36.59C228.28 36.64 228.26 36.69 228.24 36.73C228.15 36.99 228.04 37.31 228.24 37.66C228.4 37.96 228.7 38.14 229.04 38.14C230.18 38.14 231.84 38.14 232.29 38.14H232.42H238.38C238.72 38.14 239.02 37.96 239.18 37.66C239.27 37.49 239.3 37.31 239.27 37.1C239.27 37.05 239.25 37 239.24 36.94C239.22 36.88 239.2 36.8 239.17 36.72C239.15 36.67 239.14 36.63 239.12 36.58C239.03 36.28 238.95 35.98 238.88 35.68C238.85 35.56 238.82 35.43 238.8 35.31C238.7 34.82 238.62 34.33 238.57 33.85C238.43 32.45 238.37 30.96 238.37 29.01C238.37 27.29 238.37 24.22 238.37 23.3V23.02V22.72C238.37 22.67 238.41 22.63 238.46 22.63H253.73C253.78 22.63 253.82 22.67 253.82 22.72C253.82 22.83 253.82 22.93 253.82 23.03V29.01C253.82 30.96 253.76 32.45 253.62 33.85C253.57 34.33 253.5 34.82 253.39 35.31C253.36 35.43 253.34 35.56 253.31 35.68C253.24 35.97 253.16 36.27 253.07 36.58C253.06 36.63 253.04 36.68 253.02 36.72C252.99 36.8 252.97 36.87 252.95 36.95C252.94 37 252.92 37.05 252.92 37.11C252.89 37.3 252.92 37.48 253.01 37.66C253.17 37.96 253.47 38.14 253.81 38.14H256.79H258.84C259.37 38.14 259.63 38.14 259.77 38.13H263.15C263.49 38.13 263.79 37.95 263.95 37.65C264.14 37.3 264.03 36.98 263.94 36.72C263.92 36.67 263.91 36.63 263.89 36.58Z" fill="white"/>
<path d="M26.3 2.35V0.93C26.31 0.76 26.28 0.61 26.2 0.47C26.04 0.18 25.75 0 25.42 0H0.869969C0.539968 0 0.249969 0.18 0.0999685 0.47C-0.0800315 0.81 0.0299685 1.12 0.109969 1.37C0.129969 1.41 0.139969 1.46 0.149969 1.51C0.239969 1.8 0.319968 2.08 0.379968 2.37C0.409968 2.49 0.439968 2.61 0.459969 2.72C0.559969 3.19 0.629969 3.65 0.679969 4.11C0.799969 5.33 0.859969 9.37 0.869969 11.05V11.55V12.37C0.869969 12.76 0.869969 13.1 0.869969 13.35C0.869969 16.84 4.39997 18.62 7.46997 19.21C7.66997 19.25 7.64997 19.54 7.43997 19.55C6.66997 19.58 5.86997 19.65 5.05997 19.78C3.23997 20.06 2.18997 21 1.75997 21.42C1.02997 22.15 0.879969 23.3 0.859969 24.85C0.859969 25.27 0.859969 25.71 0.859969 26.19C0.859969 26.5 0.859969 26.82 0.859969 27.15C0.859969 27.17 0.859969 27.19 0.859969 27.22V27.56C0.859969 27.77 0.859969 27.95 0.859969 28.11V28.31V28.51V31.97C0.829969 32.72 0.779969 33.4 0.719969 34.05C0.679969 34.51 0.599969 34.97 0.509969 35.44C0.489969 35.56 0.459969 35.68 0.429969 35.79C0.359969 36.07 0.289969 36.36 0.199969 36.65C0.189969 36.7 0.169969 36.74 0.159969 36.79C0.0799685 37.03 -0.0300315 37.34 0.149969 37.67C0.299969 37.96 0.619969 38.15 0.969969 38.15H2.14997H2.43997H10.06L10.09 38.14C10.13 38.14 10.16 38.14 10.19 38.14C10.52 38.14 10.81 37.96 10.97 37.67C11.06 37.5 11.09 37.33 11.06 37.13C11.06 37.09 11.04 37.03 11.03 36.98C11.01 36.92 10.99 36.85 10.96 36.77C10.94 36.73 10.93 36.68 10.92 36.64C10.83 36.35 10.75 36.07 10.69 35.79C10.66 35.67 10.63 35.55 10.61 35.44C10.61 35.44 10.47 34.8 10.39 34.05C10.33 33.55 10.26 32.37 10.22 30.68C10.22 30.3 10.22 29.9 10.22 29.48V22.92C10.21 22.78 10.32 22.67 10.45 22.67H10.55H19C19.91 22.67 20.6 22.7 21.25 22.76C21.47 22.78 21.69 22.82 21.92 22.86C21.98 22.87 22.03 22.88 22.09 22.9C22.22 22.93 22.36 22.97 22.5 23.01C22.52 23.01 22.54 23.02 22.56 23.03C22.6 23.04 22.64 23.06 22.68 23.07C22.7 23.07 22.74 23.08 22.77 23.09C22.79 23.09 22.82 23.09 22.85 23.09C22.94 23.09 23.03 23.07 23.11 23.02C23.3 22.92 23.42 22.73 23.42 22.51V19.06V17.58C23.43 17.43 23.4 17.29 23.33 17.16C23.19 16.89 22.92 16.73 22.62 16.73H10.47C10.3 16.73 10.16 16.59 10.16 16.42V6.6C10.16 6.43 10.3 6.29 10.47 6.29H21.33C22.36 6.29 23.15 6.32 23.88 6.4C24.13 6.42 24.38 6.46 24.64 6.52C24.7 6.53 24.77 6.55 24.83 6.56C24.98 6.6 25.14 6.64 25.3 6.69C25.32 6.69 25.35 6.71 25.37 6.71C25.41 6.72 25.46 6.74 25.5 6.75C25.53 6.75 25.56 6.77 25.6 6.77C25.62 6.77 25.65 6.77 25.69 6.77C25.79 6.77 25.88 6.75 25.97 6.7C26.17 6.59 26.3 6.39 26.3 6.16V2.35Z" fill="white"/>
<path d="M280.78 8.68H291.34C292.37 8.68 293.16 8.71 293.89 8.79C294.14 8.81 294.39 8.85 294.65 8.91C294.71 8.92 294.78 8.94 294.84 8.95C294.99 8.99 295.15 9.03 295.31 9.08C295.33 9.08 295.36 9.1 295.38 9.1C295.42 9.11 295.47 9.13 295.51 9.14C295.54 9.14 295.57 9.16 295.61 9.16C295.63 9.16 295.66 9.16 295.7 9.16C295.8 9.16 295.89 9.14 295.98 9.09C296.18 8.98 296.31 8.78 296.31 8.55V4.75V3.33C296.32 3.16 296.29 3.01 296.21 2.87C296.05 2.58 295.76 2.4 295.43 2.4H271.56C271.23 2.4 270.94 2.58 270.78 2.87C270.6 3.21 270.71 3.52 270.79 3.77C270.81 3.81 270.82 3.86 270.83 3.91C270.92 4.2 271 4.48 271.06 4.77C271.09 4.89 271.12 5.01 271.14 5.12C271.24 5.59 271.31 6.05 271.36 6.51C271.48 7.69 271.53 8.92 271.55 11.06V11.62C271.55 12.24 271.57 12.86 271.58 13.48C271.58 13.85 271.62 14.22 271.71 14.57C272.44 17.32 275.55 18.71 278.14 19.21C278.34 19.25 278.32 19.54 278.11 19.55C277.34 19.58 276.54 19.65 275.73 19.78C273.91 20.06 272.86 21 272.43 21.42C271.69 22.16 271.55 23.34 271.53 24.94C271.53 25.26 271.53 25.86 271.53 26.19C271.53 26.4 271.53 26.94 271.53 27.15C271.53 27.17 271.53 27.19 271.53 27.22V27.56C271.53 27.77 271.53 27.95 271.53 28.11V28.31V29.8C271.51 31.77 271.45 32.92 271.34 34.06C271.29 34.52 271.22 34.98 271.12 35.45C271.09 35.57 271.07 35.69 271.04 35.8C270.97 36.08 270.89 36.37 270.81 36.65C270.8 36.7 270.78 36.74 270.77 36.79C270.68 37.04 270.58 37.35 270.76 37.69C270.92 37.98 271.21 38.16 271.53 38.16H295.4C295.73 38.16 296.02 37.98 296.18 37.69C296.26 37.55 296.29 37.4 296.28 37.23V35.5V32C296.28 31.77 296.16 31.57 295.95 31.46C295.86 31.41 295.77 31.39 295.67 31.39C295.64 31.39 295.6 31.39 295.57 31.39C295.54 31.39 295.5 31.4 295.47 31.41C295.44 31.41 295.39 31.43 295.35 31.45C295.33 31.45 295.3 31.47 295.28 31.47C295.12 31.52 294.97 31.56 294.81 31.6C294.75 31.62 294.68 31.63 294.62 31.64C294.37 31.69 294.11 31.73 293.86 31.76C293.12 31.83 292.34 31.87 291.31 31.87H280.75C280.65 31.87 280.57 31.81 280.53 31.72V27.33L280.51 23.15V22.89C280.51 22.75 280.63 22.64 280.77 22.64H280.86H288.97C289.88 22.64 290.57 22.67 291.22 22.73C291.44 22.75 291.66 22.79 291.89 22.83C291.95 22.84 292 22.85 292.06 22.87C292.19 22.9 292.33 22.94 292.47 22.98C292.49 22.98 292.51 22.99 292.53 23C292.57 23.01 292.61 23.03 292.65 23.04C292.67 23.04 292.71 23.05 292.74 23.06C292.76 23.06 292.79 23.06 292.82 23.06C292.91 23.06 293 23.04 293.08 22.99C293.27 22.89 293.39 22.7 293.39 22.48V19.02V17.55C293.4 17.4 293.37 17.26 293.3 17.13C293.16 16.86 292.89 16.7 292.59 16.7H280.77C280.63 16.7 280.52 16.59 280.52 16.45V16.39C280.52 16.24 280.52 12.46 280.52 8.91C280.52 8.77 280.63 8.66 280.77 8.66L280.78 8.68Z" fill="white"/>
</g>
<defs>
<clipPath id="clip0_1_6">
<rect width="369.29" height="106.43" fill="white"/>
</clipPath>
</defs>
</svg>
