<svg width="417" height="67" viewBox="0 0 417 67" fill="none" xmlns="http://www.w3.org/2000/svg">
<g clip-path="url(#clip0_4_159)">
<path d="M16.77 16.67L16.44 16.57L14.98 18.69L17.81 26.31C15.29 28.27 11.64 29.63 8.08 29.63C3.86 29.63 1.13 27.79 1.13 24.3C1.13 22.94 1.59 21.28 2.76 19.62L2.59 19.45C1.26 20.78 0 23.2 0 25.56C0 30.01 2.92 33.13 8.13 33.13C11.98 33.13 15.67 31.6 17.66 29.74L18.34 27.19C18.56 26.37 18.62 25.51 18.51 24.67C18.15 21.94 17.36 18.67 16.76 16.66L16.77 16.67Z" fill="black"/>
<path d="M8.98992 18.11C9.60992 17.5 10.2199 16.87 10.8399 16.26C10.5499 16.09 10.1899 15.85 9.82992 15.49C9.43992 15.11 9.16992 14.72 8.99992 14.43C8.38992 15.04 7.77992 15.65 7.16992 16.26C7.34992 16.56 7.61992 16.95 8.01992 17.34C8.36992 17.68 8.71992 17.94 8.99992 18.11H8.98992Z" fill="black"/>
<path d="M75.6 13.92L75.23 13.75L73.64 16.07L75.93 22.15C73.07 22.18 70.32 21.88 68.16 21.29L69.62 17.27L69.42 17.17L68.62 17.8L67.42 21.12C65.66 22.22 63.07 22.15 60.98 21.68L62.21 18.76L62.01 18.66L61.25 19.26L60.49 21.25C59.33 21.68 57.75 21.88 56.76 21.88C55.27 21.88 53.98 21.51 52.62 20.78V3.75997L52.22 3.62997L50.56 6.41997C50.85 11.3 51.14 16.18 51.42 21.06C51.05 21.19 50.49 21.37 49.8 21.51C48.53 21.78 44.42 22.64 41.06 20.31C40.42 19.86 38.51 18.47 38.01 16.09C37.85 15.33 37.86 14.56 38.03 14.11L37.8 13.78C36.11 14.58 32.25 17.14 30.59 19.43C30.5 19.82 30.41 20.2 30.32 20.59C29.59 20.97 28.94 21.21 28.44 21.37C27.31 21.72 25.26 22.15 22.85 21.6C22.1 21.43 21.49 21.2 21.06 21.01V3.75997L20.66 3.62997L19.03 6.14997L19.83 20.89C19.86 21.23 19.9 21.55 20 21.91C20 21.91 20.22 22.68 20.74 23.36C21.44 24.29 22.78 25.03 24.81 25.21C25.65 25.23 27.05 25.12 28.6 24.45C29.52 24.05 30.22 23.56 30.72 23.15C34.01 24.61 38.32 25.37 40.85 25.41L41.51 23.48C42.86 24.46 44.3 25.11 45.64 25.2C46.48 25.23 47.16 25.17 48.04 25.08C48.85 24.99 49.59 24.86 50.26 24.71L51.69 22.29C52.39 24.12 54.08 25.21 56.74 25.21C57.57 25.21 58.8 24.98 59.6 24.51C60.63 24.97 61.82 25.27 63.25 25.27C64.68 25.27 65.74 25 67.07 24.27V24.24C69.79 25.24 72.25 25.44 74.97 25.44L75.83 23.61C76.31 22.6 76.51 21.48 76.43 20.36C76.28 18.32 75.98 15.75 75.6 13.92ZM31.72 20.23V19.98C33.69 17.99 35.12 17.09 36.58 16.3C36.95 18.36 38.24 20.43 39.87 22.09C37.01 21.69 33.78 20.86 31.72 20.23Z" fill="black"/>
<path d="M150.26 24.58L150.95 23.03L151.37 22.12C151.77 21.26 151.98 20.31 151.98 19.36V10.81C151.98 10.32 152.21 9.84999 152.61 9.55999L151.75 3.65999C151.75 3.65999 151.75 3.65999 151.75 3.64999L151.37 3.51999H151.36L150.01 5.76999L151.07 21.09V21.1C150.42 21.31 149.71 21.49 148.94 21.63C146.1 22.15 143.62 21.86 141.81 21.45C140.98 21.23 140.04 20.84 139.12 20.19C138.37 19.66 136.61 18.29 136.07 15.97C135.9 15.22 135.92 14.45 136.09 14C136.09 14 136.09 14 136.09 13.99L135.87 13.67C135.87 13.67 135.87 13.67 135.85 13.67C134.15 14.47 130.31 17.03 128.66 19.31L128.4 20.46C127.76 20.8 127.02 21.12 126.18 21.35C122.72 22.33 119.61 21.37 118.03 20.73C117.99 20.71 117.94 20.68 117.9 20.66C117.9 20.66 117.9 20.66 117.9 20.65V3.65999V3.64999L117.52 3.51999H117.51L115.86 6.29999C116.15 11.18 116.43 16.05 116.72 20.93V20.94C116.68 20.95 116.64 20.97 116.6 20.98C115.68 21.24 114.58 21.49 113.33 21.66C113.3 21.66 113.27 21.66 113.24 21.66C111.88 21.83 110.35 21.91 108.68 21.78C107.15 21.67 105.79 21.41 104.64 21.1C104.63 21.1 104.61 21.1 104.6 21.09C104.6 21.09 104.6 21.09 104.6 21.08V3.65999V3.64999L104.22 3.51999H104.21L102.59 6.02999L103.39 20.77V20.96C103.39 20.96 103.39 20.97 103.38 20.97C99.89 21.5 95.09 21.86 90.77 21.86C86.45 21.86 84.03 21.23 84.03 18.67C84.03 17.91 84.26 16.98 84.76 15.86C84.76 15.86 84.76 15.85 84.76 15.84L84.58 15.72C84.58 15.72 84.57 15.72 84.56 15.72C83.54 17.15 83.01 18.77 83.01 20.23C83.01 23.65 85.3 25.31 91.01 25.31C95.19 25.31 98.68 24.98 102.03 24.35L103.57 22.05H103.59C103.73 22.47 103.91 22.85 104.15 23.18C104.19 23.23 104.22 23.29 104.26 23.34C105.66 25.18 108.54 25.14 111.05 25.1C111.72 25.1 112.54 25.05 113.48 24.93C114.19 24.85 114.92 24.74 115.58 24.58L116.99 22.18H117.01C117.44 23.28 118.23 24.12 119.39 24.6C120.66 25.21 122.74 25.3 124.24 25.08C125.17 24.94 126.95 24.54 128.85 23.04C128.85 23.04 128.85 23.04 128.86 23.04C130.31 23.64 132.1 24.25 134.21 24.69C135.97 25.06 137.58 25.22 138.95 25.28H138.96L139.62 23.38C139.62 23.38 139.63 23.37 139.64 23.38C139.98 23.63 140.31 23.85 140.64 24.04C144.23 26.07 148.33 25.2 150.32 24.59L150.26 24.58ZM137.86 21.97C135.02 21.57 131.81 20.75 129.76 20.12C129.76 20.12 129.76 20.12 129.76 20.11V19.88C129.76 19.88 129.77 19.88 129.78 19.88C131.73 17.9 133.15 17 134.61 16.21H134.63C135 18.25 136.28 20.31 137.89 21.96C137.89 21.96 137.89 21.98 137.88 21.98L137.86 21.97Z" fill="black"/>
<path d="M158.52 3.64999L158.14 3.51999H158.13L156.78 5.76999L157.71 25.08C157.71 25.08 157.71 25.09 157.72 25.09H157.93C157.93 25.09 157.94 25.09 157.94 25.08L158.46 22.44C158.53 22.06 158.58 21.67 158.58 21.28L158.73 10.82C158.73 10.33 158.97 9.86999 159.37 9.57999C159.37 9.57999 159.37 9.57999 159.37 9.56999L158.54 3.63999C158.54 3.63999 158.54 3.63999 158.54 3.62999L158.52 3.64999Z" fill="black"/>
<path d="M91.5699 17.72C92.3499 17.63 93.0099 17.49 94.0299 17.19C94.7699 16.98 95.1999 16.83 95.9399 16.54L96.3399 15.43C96.6699 14.43 96.2399 13.84 94.9499 13.84H92.2899L94.2799 12.15L94.7399 10.63C94.7399 10.63 94.7399 10.63 94.7399 10.62L94.5499 10.43C94.5499 10.43 94.5399 10.43 94.5299 10.43C92.7399 11.86 91.4499 13.68 91.8799 14.57L92.2399 15.36C92.2399 15.36 92.2399 15.36 92.2499 15.36H95.2599C94.0699 15.88 92.8799 16.4 91.6899 16.92C91.5399 16.99 91.4299 17.13 91.4199 17.3C91.4199 17.38 91.4199 17.45 91.4599 17.53L91.5399 17.71L91.5699 17.72Z" fill="black"/>
<path d="M208.41 9.61999L207.58 3.67999L207.18 3.54999L205.82 5.80999L206.75 25.13H206.98L207.5 22.48C207.57 22.1 207.62 21.71 207.62 21.32L207.77 10.86C207.77 10.38 208.01 9.91999 208.4 9.62999H208.41V9.61999Z" fill="black"/>
<path d="M216.81 14.47C214.22 14.47 212.83 18.49 212.43 21.77L213.53 24.53C215.46 25.03 217.95 25.23 219.8 24.76L221.46 24.36C220.8 27.91 216.71 29.87 213.72 29.87C212.19 29.87 210.27 29.31 208.37 28.41C208.337 28.4633 208.303 28.5233 208.27 28.59C210.43 30.07 212.59 31.65 214.75 33.13C218.57 32.57 222.19 29.14 222.19 23.16C222.19 18.88 219.6 14.46 216.81 14.46V14.47ZM213.03 21.31C213.66 19.38 215.22 17.33 216.68 17.33C218.37 17.33 220.43 18.96 221.23 21.35C218.31 21.81 215.22 21.81 213.03 21.32V21.31Z" fill="black"/>
<path d="M196.65 15.57C194.28 14.85 191.88 14.1 189.5 13.37C189.28 13.3 189.05 13.23 188.83 13.17C188.75 13.15 188.68 13.12 188.6 13.1C188.43 13.05 188.25 12.99 188.08 12.94C188 13.02 187.92 13.1 187.84 13.18C187.24 14.98 186.64 16.77 186.04 18.57L186.52 18.65C187.05 17.7 187.59 16.75 188.12 15.81L194.32 17.69C195.78 18.12 197.08 18.52 198.27 18.79C198.31 18.79 198.35 18.81 198.39 18.82C198.21 18.94 197.89 19.15 197.48 19.37C195.82 20.26 194.22 20.76 193.38 20.98C193.16 21.04 192.74 21.15 192.12 21.26C190.88 21.49 189.55 21.63 188.3 21.7C186.61 21.76 185.13 21.75 183.9 21.71C180.83 21.62 178.48 21.34 176.6 20.05C176.59 20.05 176.58 20.03 176.56 20.02C175.87 19.54 174.05 18.21 173.51 15.85C173.34 15.1 173.36 14.32 173.53 13.87L173.3 13.54C171.61 14.34 167.75 16.9 166.09 19.19C165.98 19.51 165.87 19.9 165.82 20.35C165.7 21.5 166.02 22.42 166.24 22.92C167.69 23.52 169.49 24.14 171.59 24.57C173.36 24.94 174.97 25.1 176.34 25.16L177 23.23C177.18 23.37 177.42 23.54 177.73 23.73C179.66 24.92 181.65 25.13 184.11 25.15C185.51 25.16 187.27 25.11 189.32 24.9C190.2 24.82 191.11 24.72 192.04 24.58C192.74 24.48 193.41 24.36 194.07 24.24C195.56 23.32 197.17 22.18 198.8 20.77C199.45 20.21 200.05 19.65 200.6 19.1C200.7 19.1 200.8 19.1 200.89 19.1C200.99 19.1 201.08 19.1 201.17 19.1C201.26 19.1 201.35 19.1 201.44 19.09C202.6 19 203.47 18.58 204.01 17.64L205.24 15.58L205.01 15.41C202.69 17.14 200.06 16.61 196.61 15.54L196.65 15.57ZM167.23 20V19.75C169.2 17.76 170.63 16.86 172.09 16.07C172.46 18.13 173.75 20.2 175.38 21.86C172.52 21.46 169.29 20.63 167.23 20Z" fill="black"/>
<path d="M170.9 12.04C171.4 11.55 171.89 11.04 172.39 10.55C172.56 10.78 172.78 11.03 173.04 11.29C173.38 11.61 173.71 11.87 173.99 12.04C174.61 11.43 175.22 10.8 175.84 10.19C175.55 10.02 175.19 9.77999 174.83 9.41999C174.44 9.03999 174.17 8.64999 174 8.35999L172.4 9.95999C172.12 9.76999 171.78 9.49999 171.45 9.12999C171.21 8.85999 171.03 8.58999 170.89 8.35999C170.57 8.67999 170.25 8.99999 169.92 9.32999C169.64 9.60999 169.34 9.90999 169.05 10.2C169.21 10.48 169.46 10.82 169.8 11.18C170.2 11.59 170.6 11.88 170.9 12.05V12.04Z" fill="black"/>
<path d="M14.25 57.89C13.8 57.83 13.4 57.61 13.07 57.23L6.23 49.52C7.07 48.18 7.91 46.85 8.75 45.51C9.13 44.91 9.6 44.17 10.41 43.37C11.29 42.49 11.97 42.14 12.21 42.02C12.87 41.69 13.48 41.55 13.89 41.48V41.05H8.3V41.59H10.37C9.18 42.66 8.41 43.56 7.94 44.25C6.93 45.73 6.43 46.63 5.34 48.36C5.02 48.86 4.62 49.31 4.16 49.69V42.73C4.16 42.64 4.16 42.56 4.19 42.48C4.2 42.43 4.22 42.39 4.24 42.35C4.62 41.5 5.91 41.6 6.06 41.6V41.06H0V41.6C0.19 41.61 0.94 41.57 1.44 41.92C1.54 41.99 1.69 42.1 1.79 42.3C1.89 42.5 1.9 42.68 1.9 42.79V57.34C1.9 57.45 1.9 57.63 1.79 57.83C1.69 58.03 1.54 58.14 1.44 58.21C0.94 58.56 0.19 58.52 0 58.53V59.07H6.06V58.53C5.91 58.53 4.62 58.63 4.24 57.78C4.22 57.74 4.21 57.7 4.19 57.65C4.17 57.57 4.16 57.48 4.16 57.4V50.06L11.2 58.67C11.39 58.91 11.59 59.07 11.81 59.16C12.02 59.25 12.27 59.29 12.55 59.29C13.01 59.29 13.52 59.21 14.09 59.06C14.66 58.91 15.22 58.74 15.78 58.56L15.68 57.95C15.18 58.01 14.71 58 14.26 57.95L14.25 57.89Z" fill="black"/>
<path d="M55.0401 46.7C55.3501 46.46 55.7801 46.08 56.1901 45.52C56.1001 45.4 56.1001 45.41 56.0101 45.29C55.7101 45.41 55.3101 45.56 54.8301 45.72C54.0401 45.98 53.6201 46.11 53.0701 46.15C52.7301 46.17 52.5001 46.17 52.2901 46.14C51.9501 46.09 51.6801 45.98 51.5101 45.9C50.8001 45.53 50.0001 45.34 49.1101 45.34C48.2201 45.34 47.3101 45.57 46.4701 46.03C45.6301 46.49 44.9501 47.11 44.4101 47.89C43.8801 48.67 43.6101 49.52 43.6101 50.45C43.6101 51.77 44.0601 52.84 44.9701 53.63C45.4101 54.02 45.9201 54.32 46.4701 54.52C45.5301 55.28 44.7301 56.03 44.7301 56.6C44.7301 57.04 44.9301 57.38 45.0401 57.52C45.3101 57.88 45.7801 58.21 46.4201 58.45C45.4401 58.97 44.6901 59.45 44.1601 59.86C43.5401 60.35 43.1201 60.79 42.9201 61.19C42.7201 61.58 42.6101 61.96 42.6101 62.31C42.6101 63 42.8101 63.6 43.2001 64.09C43.5901 64.58 44.1101 64.98 44.7401 65.29C45.3701 65.6 46.0401 65.83 46.7701 65.97C47.4901 66.11 48.1901 66.18 48.8601 66.18C49.7001 66.18 50.5401 66.04 51.3901 65.77C52.2401 65.5 53.0101 65.12 53.7101 64.63C54.4101 64.14 54.9701 63.57 55.4001 62.91C55.8301 62.25 56.0401 61.53 56.0401 60.75C56.0401 60.3 55.8901 59.85 55.5901 59.41C55.2901 58.96 54.7601 58.57 54.0001 58.22C53.2401 57.87 52.1701 57.62 50.7801 57.47C49.7901 57.35 49.0301 57.22 48.5001 57.09C47.9701 56.96 47.6101 56.83 47.4101 56.68C47.2101 56.54 47.1201 56.39 47.1201 56.24C47.1201 56.03 47.2701 55.88 47.6101 55.51C47.7901 55.31 48.0301 55.08 48.3301 54.82C48.3501 54.82 48.3601 54.82 48.3801 54.82C49.3101 54.82 50.2101 54.61 51.0701 54.19C51.9301 53.77 52.6401 53.19 53.2001 52.45C53.7601 51.71 54.0401 50.85 54.0401 49.88C54.0401 49.05 53.8201 48.29 53.3901 47.6C53.3601 47.56 53.3401 47.52 53.3101 47.48C53.4801 47.48 53.6501 47.43 53.8401 47.36C54.4901 47.12 54.9501 46.78 55.0601 46.69L55.0401 46.7ZM49.5701 59.09C50.7201 59.21 51.6101 59.38 52.2301 59.59C52.8501 59.8 53.2801 60.04 53.5201 60.33C53.7601 60.61 53.8801 60.93 53.8801 61.28C53.8801 62.26 53.4901 63.07 52.7201 63.72C51.9401 64.36 50.9101 64.68 49.6301 64.68C48.7601 64.68 47.9601 64.55 47.2201 64.28C46.4801 64.01 45.8801 63.66 45.4301 63.22C44.9801 62.78 44.7501 62.29 44.7501 61.76C44.7501 61.54 44.8101 61.29 44.9401 61.01C45.0701 60.73 45.3701 60.39 45.8501 60C46.2601 59.66 46.8801 59.27 47.7101 58.82C48.1701 58.92 48.7501 59.01 49.5801 59.1L49.5701 59.09ZM51.6301 52.04C51.3701 52.46 51.0401 52.78 50.6501 53C50.2601 53.21 49.8801 53.32 49.5101 53.32C48.1701 53.32 47.1801 52.96 46.5501 52.23C45.9201 51.5 45.6001 50.63 45.6001 49.62C45.6001 48.99 45.7501 48.46 46.0401 48.03C46.3301 47.6 46.6701 47.28 47.0601 47.07C47.4501 46.86 47.8001 46.75 48.1201 46.75C49.4101 46.75 50.3801 47.11 51.0401 47.84C51.7001 48.57 52.0301 49.44 52.0301 50.46C52.0301 51.09 51.9001 51.61 51.6401 52.04H51.6301Z" fill="black"/>
<path d="M39.4501 58.23C39.3601 58.16 39.2201 58.06 39.1201 57.87C39.0201 57.68 39.0201 57.51 39.0201 57.41V52.91V48.46C39.0201 47.38 38.7001 46.59 38.0601 46.09C37.4201 45.59 36.6901 45.33 35.8701 45.33C35.3701 45.33 34.7901 45.49 34.1101 45.82C33.4301 46.14 32.7501 46.61 32.0601 47.21C31.4001 47.79 30.8001 48.39 30.2601 49.18V45.34H29.7701C29.2801 45.58 28.7001 45.8 28.0301 46C27.3501 46.2 26.7201 46.36 26.1201 46.48V47C26.7901 47.06 27.2601 47.2 27.5301 47.32C27.8101 47.45 27.9701 47.67 28.0301 48C28.0901 48.32 28.1201 48.81 28.1201 49.47V53.32V57.46C28.1201 57.54 28.1201 57.62 28.0901 57.7C28.0801 57.74 28.0601 57.79 28.0401 57.82C27.6801 58.63 26.7001 58.53 26.3201 58.53V59.04H32.0501V58.53C31.7001 58.53 31.1601 58.56 30.6901 58.23C30.6001 58.16 30.4601 58.06 30.3601 57.87C30.2601 57.68 30.2601 57.51 30.2601 57.41V51.17C31.1801 49.71 32.0001 48.89 32.8101 48.24C33.6201 47.58 34.4801 47.39 35.0601 47.39C35.7401 47.39 36.2101 47.57 36.4801 47.93C36.7501 48.29 36.8901 49.05 36.8901 50.21V53.04V57.46C36.8901 57.54 36.8901 57.62 36.8601 57.7C36.8501 57.74 36.8301 57.79 36.8101 57.82C36.4501 58.63 35.4701 58.53 35.0901 58.53V59.04H40.8201V58.53C40.4701 58.53 39.9301 58.56 39.4601 58.23H39.4501Z" fill="black"/>
<path d="M22.54 58.23C22.45 58.16 22.31 58.06 22.21 57.87C22.11 57.68 22.11 57.51 22.11 57.41V53.39V45.33H21.62C21.13 45.57 20.55 45.79 19.88 45.99C19.2 46.19 18.57 46.35 17.97 46.47V46.99C18.64 47.05 19.11 47.19 19.38 47.31C19.66 47.44 19.82 47.66 19.88 47.99C19.94 48.31 19.97 48.8 19.97 49.46V57.44C19.97 57.52 19.97 57.6 19.94 57.68C19.93 57.72 19.91 57.77 19.89 57.8C19.53 58.61 18.55 58.51 18.17 58.51V59.02H23.9V58.51C23.55 58.51 23.01 58.54 22.54 58.21V58.23Z" fill="black"/>
<path d="M21.0499 43.8C21.8121 43.8 22.4299 43.1821 22.4299 42.42C22.4299 41.6578 21.8121 41.04 21.0499 41.04C20.2878 41.04 19.6699 41.6578 19.6699 42.42C19.6699 43.1821 20.2878 43.8 21.0499 43.8Z" fill="black"/>
<path d="M152.9 58.23C152.81 58.16 152.67 58.06 152.57 57.87C152.47 57.68 152.47 57.51 152.47 57.41V52.91V48.46C152.47 47.38 152.15 46.59 151.51 46.09C150.87 45.59 150.14 45.33 149.32 45.33C148.82 45.33 148.24 45.49 147.56 45.82C146.88 46.14 146.2 46.61 145.51 47.21C144.85 47.79 144.25 48.39 143.71 49.18V45.34H143.22C142.73 45.58 142.15 45.8 141.48 46C140.8 46.2 140.17 46.36 139.57 46.48V47C140.24 47.06 140.71 47.2 140.98 47.32C141.26 47.45 141.42 47.67 141.48 48C141.54 48.32 141.57 48.81 141.57 49.47V53.32V57.46C141.57 57.54 141.57 57.62 141.54 57.7C141.53 57.74 141.51 57.79 141.49 57.82C141.13 58.63 140.15 58.53 139.77 58.53V59.04H145.5V58.53C145.15 58.53 144.61 58.56 144.14 58.23C144.05 58.16 143.91 58.06 143.81 57.87C143.71 57.68 143.71 57.51 143.71 57.41V51.17C144.63 49.71 145.45 48.89 146.26 48.24C147.07 47.58 147.93 47.39 148.51 47.39C149.19 47.39 149.66 47.57 149.93 47.93C150.2 48.29 150.34 49.05 150.34 50.21V53.04V57.46C150.34 57.54 150.34 57.62 150.31 57.7C150.3 57.74 150.28 57.79 150.26 57.82C149.9 58.63 148.92 58.53 148.54 58.53V59.04H154.27V58.53C153.92 58.53 153.38 58.56 152.91 58.23H152.9Z" fill="black"/>
<path d="M88.78 57.81C88.63 57.76 88.54 57.68 88.51 57.67C88.31 57.49 88.2 57.16 88.2 56.5V48.44C88.2 47.46 87.92 46.7 87.35 46.15C86.78 45.6 85.98 45.33 84.93 45.33C84.13 45.33 83.3 45.5 82.45 45.84C81.6 46.18 81.01 46.5 80.2 47.21C79.44 47.87 79.07 48.51 78.77 49.15L78.9 49.51C79.14 49.51 79.42 49.5 79.74 49.43C80.61 49.25 81.02 48.94 81.33 48.69C81.31 48.55 81.3 48.29 81.41 48.01C81.55 47.65 81.8 47.44 81.99 47.3C82.49 46.94 83.04 46.76 83.65 46.75C84.58 46.72 85.22 46.93 85.55 47.37C85.88 47.81 86.05 48.36 86.05 49.01V51.02C84.62 51.23 83.5 51.45 82.67 51.68C81.82 51.92 81.17 52.17 80.72 52.44C80.27 52.71 79.89 53 79.58 53.31C79.23 53.66 78.93 54.08 78.67 54.56C78.42 55.04 78.29 55.65 78.29 56.38C78.29 57.11 78.45 57.71 78.77 58.17C79.09 58.63 79.48 58.96 79.95 59.16C80.42 59.36 80.88 59.47 81.34 59.47C81.99 59.47 82.75 59.25 83.64 58.82C84.44 58.43 85.24 57.82 86.05 57C86.05 57.69 86.07 58.33 86.05 59.04C86.45 59.14 87.43 59.35 88.37 59.08C89.43 58.78 90.09 58.06 90.38 57.76L90.19 57.41C90.11 57.48 89.41 58.02 88.77 57.81H88.78ZM84.08 57.13C83.41 57.44 82.79 57.6 82.19 57.6C82.03 57.6 81.82 57.55 81.58 57.46C81.33 57.36 81.12 57.18 80.93 56.92C80.74 56.65 80.65 56.27 80.65 55.76C80.65 55.31 80.73 54.92 80.89 54.6C81.05 54.28 81.24 53.98 81.48 53.72C81.69 53.5 81.95 53.3 82.27 53.11C82.59 52.92 83.05 52.75 83.66 52.57C84.24 52.41 85.05 52.24 86.07 52.08V55.78C85.37 56.38 84.71 56.83 84.08 57.13Z" fill="black"/>
<path d="M135.82 57.81C135.67 57.76 135.58 57.68 135.55 57.67C135.35 57.49 135.24 57.16 135.24 56.5V48.44C135.24 47.46 134.96 46.7 134.39 46.15C133.82 45.6 133.02 45.33 131.97 45.33C131.17 45.33 130.34 45.5 129.49 45.84C128.64 46.18 128.05 46.5 127.24 47.21C126.48 47.87 126.11 48.51 125.81 49.15L125.94 49.51C126.18 49.51 126.46 49.5 126.78 49.43C127.65 49.25 128.06 48.94 128.37 48.69C128.35 48.55 128.34 48.29 128.45 48.01C128.59 47.65 128.84 47.44 129.03 47.3C129.53 46.94 130.08 46.76 130.69 46.75C131.62 46.72 132.26 46.93 132.59 47.37C132.92 47.81 133.09 48.36 133.09 49.01V51.02C131.66 51.23 130.54 51.45 129.71 51.68C128.86 51.92 128.21 52.17 127.76 52.44C127.31 52.71 126.93 53 126.62 53.31C126.27 53.66 125.97 54.08 125.71 54.56C125.46 55.04 125.33 55.65 125.33 56.38C125.33 57.11 125.49 57.71 125.81 58.17C126.13 58.63 126.52 58.96 126.99 59.16C127.46 59.36 127.92 59.47 128.38 59.47C129.03 59.47 129.79 59.25 130.68 58.82C131.48 58.43 132.28 57.82 133.09 57C133.09 57.69 133.11 58.33 133.09 59.04C133.49 59.14 134.47 59.35 135.41 59.08C136.47 58.78 137.13 58.06 137.42 57.76L137.23 57.41C137.15 57.48 136.45 58.02 135.81 57.81H135.82ZM131.12 57.13C130.45 57.44 129.83 57.6 129.23 57.6C129.07 57.6 128.86 57.55 128.62 57.46C128.37 57.36 128.16 57.18 127.97 56.92C127.78 56.65 127.69 56.27 127.69 55.76C127.69 55.31 127.77 54.92 127.93 54.6C128.09 54.28 128.28 53.98 128.52 53.72C128.73 53.5 128.99 53.3 129.31 53.11C129.62 52.92 130.09 52.75 130.7 52.57C131.28 52.41 132.09 52.24 133.11 52.08V55.78C132.41 56.38 131.75 56.83 131.12 57.13Z" fill="black"/>
<path d="M96.9101 58.23C96.8201 58.16 96.6801 58.06 96.5801 57.87C96.4801 57.68 96.4801 57.51 96.4801 57.41V44.92V36.86H95.9901C95.5001 37.1 94.9201 37.32 94.2501 37.52C93.5701 37.72 92.9401 37.88 92.3401 38V38.52C93.0101 38.58 93.4801 38.72 93.7501 38.84C94.0301 38.97 94.1901 39.19 94.2501 39.52C94.3101 39.84 94.3401 40.33 94.3401 40.99V57.44C94.3401 57.52 94.3401 57.6 94.3101 57.68C94.3001 57.72 94.2801 57.77 94.2601 57.8C93.9001 58.61 92.9201 58.51 92.5401 58.51V59.02H98.2701V58.51C97.9201 58.51 97.3801 58.54 96.9101 58.21V58.23Z" fill="black"/>
<path d="M122.3 58.23C122.21 58.16 122.07 58.06 121.97 57.87C121.87 57.68 121.87 57.51 121.87 57.41V52.91V48.46C121.87 47.38 121.55 46.59 120.91 46.09C120.27 45.59 119.54 45.33 118.72 45.33C118.22 45.33 117.64 45.49 116.96 45.82C116.28 46.14 115.6 46.61 114.91 47.21C114.24 47.79 113.64 48.4 113.09 49.2V48.46C113.09 47.38 112.77 46.59 112.13 46.09C111.49 45.59 110.76 45.33 109.94 45.33C109.44 45.33 108.86 45.49 108.18 45.82C107.5 46.14 106.82 46.61 106.13 47.21C105.47 47.79 104.87 48.39 104.33 49.18V45.34H103.84C103.35 45.58 102.77 45.8 102.1 46C101.42 46.2 100.79 46.36 100.19 46.48V47C100.86 47.06 101.33 47.2 101.6 47.32C101.88 47.45 102.04 47.67 102.1 48C102.16 48.32 102.19 48.81 102.19 49.47V53.32V57.46C102.19 57.54 102.19 57.62 102.16 57.7C102.15 57.74 102.13 57.79 102.11 57.82C101.75 58.63 100.77 58.53 100.39 58.53V59.04H106.12V58.53C105.77 58.53 105.23 58.56 104.76 58.23C104.67 58.16 104.53 58.06 104.43 57.87C104.33 57.68 104.33 57.51 104.33 57.41V51.17C105.25 49.71 106.07 48.89 106.88 48.24C107.69 47.58 108.55 47.39 109.13 47.39C109.81 47.39 110.28 47.57 110.55 47.93C110.82 48.29 110.96 49.05 110.96 50.21V53.04V57.46C110.96 57.54 110.96 57.62 110.93 57.7C110.92 57.74 110.9 57.79 110.88 57.82C110.52 58.63 109.54 58.53 109.16 58.53V59.04H114.89V58.53C114.54 58.53 114 58.56 113.53 58.23C113.44 58.16 113.3 58.06 113.2 57.87C113.1 57.68 113.1 57.51 113.1 57.41V52.91V51.2C114.02 49.73 114.85 48.9 115.66 48.24C116.47 47.58 117.33 47.39 117.91 47.39C118.59 47.39 119.06 47.57 119.33 47.93C119.6 48.29 119.74 49.05 119.74 50.21V53.04V57.46C119.74 57.54 119.74 57.62 119.71 57.7C119.7 57.74 119.68 57.79 119.66 57.82C119.3 58.63 118.32 58.53 117.94 58.53V59.04H123.67V58.53C123.32 58.53 122.78 58.56 122.31 58.23H122.3Z" fill="black"/>
<path d="M72.9099 49.59C72.2199 49.14 71.5199 48.72 70.8199 48.34C69.4399 47.59 68.4299 46.99 67.7699 46.5C67.6399 46.4 67.2499 46.08 67.1599 45.99C66.7199 45.54 66.4699 45.01 66.5699 44.39C66.7299 43.36 67.6299 42.66 67.8699 42.51C69.4899 41.51 72.3199 42.1 73.1099 43.58C73.3199 43.98 73.3699 44.48 73.3699 44.76L73.8199 44.91C73.9999 44.6 74.1799 44.23 74.3399 43.78C74.5799 43.12 74.6799 42.52 74.7299 42.05C74.2199 41.68 73.7599 41.43 73.3999 41.27C71.8699 40.57 70.5199 40.57 69.9199 40.58C69.1799 40.59 68.6799 40.7 68.4899 40.75C68.0899 40.85 67.6899 40.98 67.3099 41.16C66.4799 41.55 65.7999 42.11 65.2799 42.85C64.7599 43.59 64.4899 44.48 64.4899 45.54C64.4899 46.34 64.7799 46.93 65.1699 47.51C65.5499 48.09 66.0499 48.59 66.6599 49.03C67.2699 49.46 67.9099 49.86 68.5799 50.23C69.6599 50.81 70.5399 51.32 71.1999 51.74C72.1099 52.31 72.4499 52.62 72.7599 52.98C73.4699 53.85 73.6799 55.58 72.2699 56.84C71.4599 57.57 70.3799 57.65 70.0099 57.67C68.1499 57.77 66.3999 56.49 65.6699 54.95C65.4499 54.5 65.3599 53.99 65.3099 53.72L64.8099 53.6C64.6399 54.16 64.4799 54.9 64.4199 55.78C64.3599 56.7 64.4299 57.49 64.5299 58.08C65.4999 58.64 66.3699 58.95 66.9999 59.13C67.3499 59.23 68.1699 59.46 69.0999 59.47C69.4999 59.47 73.0099 59.51 74.6299 56.72C75.6499 54.97 75.5999 52.66 74.6099 51.22C74.1299 50.52 73.4099 49.93 72.8999 49.59H72.9099Z" fill="black"/>
<path d="M175.89 43.46C175.28 42.59 174.53 41.9 173.63 41.38C172.73 40.87 171.7 40.61 170.52 40.61C169.34 40.61 168.35 40.87 167.38 41.38C166.41 41.89 165.56 42.6 164.82 43.5C164.09 44.4 163.51 45.43 163.1 46.6C162.69 47.77 162.48 49 162.48 50.29C162.48 51.49 162.64 52.64 162.96 53.74C163.28 54.84 163.75 55.82 164.37 56.67C164.99 57.53 165.75 58.21 166.64 58.71C167.53 59.21 168.55 59.46 169.7 59.46C170.85 59.46 171.81 59.2 172.78 58.69C173.75 58.18 174.6 57.47 175.35 56.57C176.1 55.67 176.68 54.64 177.11 53.48C177.53 52.32 177.75 51.09 177.75 49.8C177.75 48.64 177.6 47.51 177.29 46.42C176.98 45.33 176.52 44.34 175.91 43.47L175.89 43.46ZM174 55.79C172.99 57.09 171.69 57.75 170.11 57.75C169.13 57.75 168.23 57.39 167.41 56.67C166.59 55.95 165.93 54.99 165.44 53.8C164.94 52.61 164.7 51.3 164.7 49.88C164.7 47.55 165.18 45.69 166.14 44.32C167.1 42.94 168.42 42.26 170.12 42.26C170.93 42.26 171.66 42.48 172.33 42.92C172.99 43.36 173.56 43.95 174.04 44.68C174.52 45.42 174.89 46.25 175.15 47.18C175.41 48.11 175.54 49.07 175.54 50.06C175.54 52.58 175.03 54.5 174.02 55.8L174 55.79Z" fill="black"/>
<path d="M221.66 53.21C221.31 52.73 220.86 52.33 220.32 51.99C219.78 51.65 219.24 51.34 218.68 51.05C217.6 50.49 216.81 50.02 216.29 49.66C215.78 49.29 215.64 48.96 215.64 48.44C215.64 48.38 215.64 48.31 215.65 48.25C215.71 47.74 216 47.28 216.43 47C216.54 46.93 216.66 46.87 216.78 46.81C217.81 46.34 219.33 46.35 220.13 47.31C220.28 47.5 220.57 47.71 220.59 48.45L220.94 48.56C221.08 48.33 221.22 48.05 221.35 47.72C221.54 47.22 221.62 46.77 221.66 46.42C221.26 46.14 220.9 45.96 220.62 45.83C219.43 45.3 218.37 45.31 217.9 45.32C217.32 45.32 216.93 45.41 216.78 45.44C216.46 45.51 216.16 45.62 215.86 45.75C215.21 46.04 214.68 46.46 214.27 47.01C213.86 47.56 213.66 48.23 213.66 49.02C213.66 49.62 213.81 50.14 214.11 50.57C214.41 51 214.8 51.38 215.27 51.71C215.75 52.03 216.25 52.33 216.77 52.61C217.62 53.05 218.3 53.42 218.82 53.74C219.34 54.05 219.72 54.36 219.96 54.67C220.2 54.97 220.32 55.35 220.32 55.78C220.32 56.45 220.1 56.99 219.66 57.4C219.54 57.51 219.41 57.61 219.28 57.69C218.77 57.99 218.14 58.02 217.98 58.02C216.53 58.06 215.49 57.18 215.49 57.18C214.59 56.41 214.36 55.44 214.3 55.14L213.91 55.05C213.78 55.47 213.65 56.02 213.6 56.68C213.55 57.37 213.6 57.96 213.68 58.41C214.44 58.83 215.12 59.06 215.61 59.2C215.89 59.28 216.55 59.46 217.25 59.46C217.77 59.46 220.29 59.48 221.57 57.4C222.2 56.38 222.16 55.33 222.16 54.99C222.16 54.28 221.98 53.68 221.63 53.2L221.66 53.21Z" fill="black"/>
<path d="M202.51 53.21C202.16 52.73 201.71 52.33 201.17 51.99C200.63 51.65 200.09 51.34 199.53 51.05C198.45 50.49 197.66 50.02 197.14 49.66C196.63 49.29 196.49 48.96 196.49 48.44C196.49 48.38 196.49 48.31 196.5 48.25C196.56 47.74 196.85 47.28 197.28 47C197.39 46.93 197.51 46.87 197.63 46.81C198.66 46.34 200.18 46.35 200.98 47.31C201.13 47.5 201.42 47.71 201.44 48.45L201.79 48.56C201.93 48.33 202.07 48.05 202.2 47.72C202.39 47.22 202.47 46.77 202.51 46.42C202.11 46.14 201.75 45.96 201.47 45.83C200.28 45.3 199.22 45.31 198.75 45.32C198.17 45.32 197.78 45.41 197.63 45.44C197.31 45.51 197.01 45.62 196.71 45.75C196.06 46.04 195.53 46.46 195.12 47.01C194.71 47.56 194.51 48.23 194.51 49.02C194.51 49.62 194.66 50.14 194.96 50.57C195.26 51 195.65 51.38 196.12 51.71C196.6 52.03 197.1 52.33 197.62 52.61C198.47 53.05 199.15 53.42 199.67 53.74C200.19 54.05 200.57 54.36 200.81 54.67C201.05 54.97 201.17 55.35 201.17 55.78C201.17 56.45 200.95 56.99 200.51 57.4C200.39 57.51 200.26 57.61 200.13 57.69C199.62 57.99 198.99 58.02 198.83 58.02C197.38 58.06 196.34 57.18 196.34 57.18C195.44 56.41 195.21 55.44 195.15 55.14L194.76 55.05C194.63 55.47 194.5 56.02 194.45 56.68C194.4 57.37 194.45 57.96 194.53 58.41C195.29 58.83 195.97 59.06 196.46 59.2C196.74 59.28 197.4 59.46 198.1 59.46C198.62 59.46 201.14 59.48 202.42 57.4C203.05 56.38 203.01 55.33 203.01 54.99C203.01 54.28 202.83 53.68 202.48 53.2L202.51 53.21Z" fill="black"/>
<path d="M209.93 58.23C209.84 58.16 209.7 58.06 209.6 57.87C209.5 57.68 209.5 57.51 209.5 57.41V53.39V45.33H209.01C208.52 45.57 207.94 45.79 207.27 45.99C206.59 46.19 205.96 46.35 205.36 46.47V46.99C206.03 47.05 206.5 47.19 206.77 47.31C207.05 47.44 207.21 47.66 207.27 47.99C207.33 48.31 207.36 48.8 207.36 49.46V52.93V57.44C207.36 57.52 207.36 57.6 207.33 57.68C207.32 57.72 207.3 57.77 207.28 57.8C206.92 58.61 205.94 58.51 205.56 58.51V59.02H211.29V58.51C210.94 58.51 210.4 58.54 209.93 58.21V58.23Z" fill="black"/>
<path d="M208.44 43.8C209.202 43.8 209.82 43.1821 209.82 42.42C209.82 41.6578 209.202 41.04 208.44 41.04C207.678 41.04 207.06 41.6578 207.06 42.42C207.06 43.1821 207.678 43.8 208.44 43.8Z" fill="black"/>
<path d="M190.52 57.81C190.37 57.76 190.28 57.68 190.25 57.67C190.05 57.49 189.94 57.16 189.94 56.5V48.44C189.94 47.46 189.66 46.7 189.09 46.15C188.52 45.6 187.72 45.33 186.67 45.33C185.87 45.33 185.04 45.5 184.19 45.84C183.34 46.18 182.75 46.5 181.94 47.21C181.18 47.87 180.81 48.51 180.51 49.15L180.64 49.51C180.88 49.51 181.16 49.5 181.48 49.43C182.35 49.25 182.76 48.94 183.07 48.69C183.05 48.55 183.04 48.29 183.15 48.01C183.29 47.65 183.54 47.44 183.73 47.3C184.23 46.94 184.78 46.76 185.39 46.75C186.32 46.72 186.96 46.93 187.29 47.37C187.62 47.81 187.79 48.36 187.79 49.01V51.02C186.36 51.23 185.24 51.45 184.41 51.68C183.56 51.92 182.91 52.17 182.46 52.44C182.01 52.71 181.63 53 181.32 53.31C180.97 53.66 180.67 54.08 180.41 54.56C180.16 55.04 180.03 55.65 180.03 56.38C180.03 57.11 180.19 57.71 180.51 58.17C180.83 58.63 181.22 58.96 181.69 59.16C182.16 59.36 182.62 59.47 183.08 59.47C183.73 59.47 184.49 59.25 185.38 58.82C186.18 58.43 186.98 57.82 187.79 57C187.79 57.69 187.81 58.33 187.79 59.04C188.19 59.14 189.17 59.35 190.11 59.08C191.17 58.78 191.83 58.06 192.12 57.76L191.93 57.41C191.85 57.48 191.15 58.02 190.51 57.81H190.52ZM185.82 57.13C185.15 57.44 184.53 57.6 183.93 57.6C183.77 57.6 183.56 57.55 183.32 57.46C183.07 57.36 182.86 57.18 182.67 56.92C182.48 56.65 182.39 56.27 182.39 55.76C182.39 55.31 182.47 54.92 182.63 54.6C182.79 54.28 182.98 53.98 183.22 53.72C183.43 53.5 183.69 53.3 184.01 53.11C184.33 52.92 184.79 52.75 185.4 52.57C185.98 52.41 186.79 52.24 187.81 52.08V55.78C187.11 56.38 186.45 56.83 185.82 57.13Z" fill="black"/>
<path d="M236.83 62.72V0L236.19 0V62.72H236.83Z" fill="black"/>
<path d="M299.61 36.03C299.7 36.16 299.78 36.12 299.89 35.99C300.32 35.6 301.58 34.32 302.15 33.74C302.28 33.61 302.28 33.55 302.16 33.4C301.71 32.76 300.49 31.37 299.87 31.04C299.7 30.95 299.68 30.95 299.51 31.07C298.81 31.6 297.92 32.51 297.39 33.13C297.13 33.43 297.12 33.49 297.23 33.58C297.87 34.09 298.88 35.07 299.61 36.03Z" fill="black"/>
<path d="M360.26 46.59C360.26 46.59 360.26 46.59 360.26 46.58C360.65 45.67 360.84 44.63 360.79 43.5C360.77 43.09 360.74 42.25 360.34 41C359.89 39.59 359.23 38.46 359.11 38.25C358.35 36.97 357.42 35.97 356.61 35.23C356.54 35.17 356.44 35.17 356.38 35.24C355.92 35.75 355.4 36.41 354.94 37.23C354.07 38.77 353.74 40.22 353.6 41.22C353.6 41.28 353.62 41.35 353.68 41.38C354.66 41.99 359.69 45.15 359.75 45.2C359.79 45.23 359.81 45.27 359.81 45.27C359.82 45.29 359.83 45.3 359.83 45.3C359.84 45.34 359.84 45.39 359.83 45.43C359.8 45.52 359.72 45.57 359.63 45.57H358.66H353.33C352.44 45.57 351.69 45.55 350.88 45.24C349.79 44.83 349.21 43.45 348.76 42.46C348.53 41.97 348.35 41.58 348.2 41.59C348.2 41.59 348.14 41.59 348.1 41.63C348.04 41.67 348.03 41.75 348.03 41.87V41.96C348.03 42.09 348.03 42.22 348.02 42.3C348.01 42.44 347.99 42.57 347.96 42.7C347.96 42.71 347.91 42.97 347.82 43.22C347.48 44.2 346.79 44.79 346.76 44.82C346.47 45.05 346.16 45.23 345.83 45.37C345.42 45.54 342.62 46 341.35 45.45L341.32 45.44C340.09 44.92 339.48 43.61 338.96 42.47C338.73 41.98 338.55 41.59 338.4 41.6C338.4 41.6 338.34 41.6 338.3 41.64C338.24 41.68 338.23 41.76 338.23 41.88V41.97C338.23 42.1 338.23 42.23 338.22 42.31C338.21 42.45 338.19 42.58 338.16 42.71C338.16 42.72 338.11 42.98 338.02 43.23C337.79 43.89 337.34 44.51 336.83 44.85C336.38 45.12 336.3 45.15 335.75 45.28C335.73 45.28 333.92 45.57 331.83 45.58L307.85 45.62H307.01C306.87 45.62 306.75 45.51 306.73 45.36C306.62 44.05 306.35 42.91 305.93 41.98C305.5 41 304.97 40.19 304.38 39.56C303.78 38.93 303.18 38.44 302.6 38.09C302.07 37.77 301.44 37.48 300.74 37.23C300.64 37.19 300.53 37.23 300.46 37.29C299.78 38 299.15 38.77 298.6 39.58C297.75 40.83 297.44 41.51 297.15 42.17L297.11 42.25C296.68 43.21 296.39 44.26 296.26 45.37C296.24 45.51 296.13 45.62 295.98 45.62H285.6C285.44 45.62 285.28 45.61 285.13 45.59H285.11C283.48 45.41 282.5 44.03 281.88 42.66C281.73 42.32 281.58 42 281.44 41.81C281.39 41.74 281.31 41.66 281.25 41.66C281.25 41.66 281.19 41.66 281.15 41.7C281.09 41.74 281.08 41.82 281.08 41.94V42.03C281.08 42.16 281.08 42.29 281.07 42.37C281.06 42.51 281.04 42.64 281.01 42.77C281.01 42.78 280.96 43.04 280.87 43.29C280.64 43.95 280.19 44.57 279.68 44.91C279.56 44.99 279.39 45.08 279.2 45.17C278.43 45.52 277.61 45.62 275.54 45.64H272.6V45.62C271.84 45.62 270.43 45.62 269.03 45.62C267.61 45.62 266.13 45.78 264.74 45.4C263.12 44.96 262.3 43.77 261.64 42.3C261.62 42.27 261.61 42.22 261.59 42.17C261.51 41.97 261.38 41.64 261.21 41.65C261.21 41.65 261.15 41.65 261.11 41.69C260.95 41.81 260.98 41.94 261.05 42.16C261.13 42.42 261.21 42.69 261.3 43.05C261.47 43.68 261.61 44.31 261.74 44.95C262.61 49.32 259.22 52.67 256.07 54.22C254.97 54.76 254.39 54.68 254.14 54.64H254.11C253.41 54.54 252.76 54.2 252.31 53.69L252.28 53.66C252.2 53.57 252.08 53.43 251.97 53.42C251.95 53.42 251.92 53.42 251.88 53.46C251.77 53.57 251.94 53.93 251.99 54.04C252.16 54.45 252.4 54.83 252.67 55.19C254.41 57.51 257.6 59.32 260.43 57.78C260.58 57.7 264.17 55.87 264.98 51.92C265.05 51.58 265.12 51.12 265.14 50.56C265.14 50.42 265.26 50.31 265.4 50.31H269.66H275.14H275.28C275.4 50.31 275.53 50.31 275.68 50.31H275.96C278.08 50.26 279.57 49.87 280.28 49.16C280.92 48.52 281.32 47.72 281.46 46.79C281.55 46.2 281.6 45.62 281.63 45.06C281.63 45.01 281.63 44.87 281.74 44.86C281.84 44.86 281.87 44.98 281.88 45.03C282.19 46.61 282.63 48.21 283.79 49.21C284.91 50.18 286.56 50.31 288.18 50.32H307.68C307.92 50.32 331.77 50.27 331.95 50.27C335.5 50.27 336.47 50.06 337.42 49.11C337.6 48.94 337.72 48.78 337.78 48.71C338.21 48.15 338.49 47.49 338.6 46.75C338.69 46.16 338.74 45.58 338.77 45.02C338.77 44.97 338.77 44.83 338.88 44.82C338.98 44.81 339.01 44.94 339.02 44.99C339.05 45.14 339.08 45.29 339.11 45.44C339.29 46.41 339.48 47.41 339.95 48.31C340.61 49.57 342.12 50.34 343.9 50.3C345.76 50.27 347.37 49.39 348.01 48.06C348.47 47.09 348.55 45.98 348.58 45.02C348.58 44.97 348.58 44.83 348.69 44.82C348.79 44.82 348.82 44.94 348.83 44.99C348.85 45.11 348.88 45.24 348.9 45.37C349.15 46.67 349.45 48.29 350.46 49.11C351.75 50.17 353.71 50.42 354.99 50.32C356.9 50.16 358.48 49.29 359.51 47.95C359.65 47.76 359.79 47.57 359.91 47.36C359.91 47.36 359.91 47.34 359.92 47.34C360.06 47.11 360.18 46.86 360.29 46.61L360.26 46.59ZM304.31 45.51C304.28 45.58 304.22 45.62 304.15 45.62H299.85H299.73C298.89 45.62 297.97 45.6 297.45 45.1C297.08 44.74 297.11 44.09 297.16 43.63C297.21 43.22 297.37 42.44 297.6 42C297.73 41.76 297.78 41.71 298.03 41.79C299.34 42.22 300.83 43.02 301.6 43.46C302.65 44.06 303.52 44.67 304.26 45.3C304.32 45.35 304.34 45.42 304.31 45.49V45.51Z" fill="black"/>
<path d="M342.88 44.01H342.85V44.18H342.88V44.01Z" fill="white"/>
<path d="M416.87 45.4V45.33C416.7 42.27 415.07 39.46 412.62 38C412.1 37.69 411.49 37.4 410.8 37.14C410.69 37.1 410.56 37.13 410.48 37.22C409.95 37.79 409.48 38.34 409.09 38.86C408.65 39.44 408.21 40.12 407.78 40.89C407.34 41.66 406.97 42.52 406.67 43.45C406.48 44.05 406.34 44.67 406.28 45.31C406.26 45.48 406.12 45.61 405.95 45.61C404.93 45.61 403.69 45.59 402.45 45.57C400.77 45.55 399.03 45.53 397.91 45.53H397.2C395.55 45.53 393.9 45.53 392.24 45.53H392.04C391.76 45.53 391.47 45.53 391.19 45.53H390.63C390.39 45.53 390.19 45.35 390.17 45.11C390.06 43.86 389.8 42.78 389.4 41.89C388.97 40.92 388.44 40.1 387.84 39.47C387.24 38.84 386.64 38.34 386.06 38C385.53 37.69 384.91 37.39 384.21 37.13C384.11 37.09 384 37.13 383.93 37.2C383.39 37.78 382.92 38.34 382.52 38.86C382.08 39.44 381.64 40.12 381.21 40.89C380.78 41.66 380.4 42.52 380.1 43.45C379.8 44.37 379.65 45.36 379.65 46.36C379.65 47.18 379.84 47.85 380.22 48.35C380.6 48.85 381.1 49.24 381.71 49.51C382.31 49.77 382.98 49.96 383.69 50.06C384.5 50.17 385.2 50.2 387.08 50.2H388.74C388.91 50.2 389.12 50.32 389.17 50.49C389.28 50.84 388.74 51.16 388.5 51.31C388.11 51.55 387.69 51.73 387.27 51.89C385.94 52.41 384.55 52.76 383.13 52.92C381.78 53.07 380.44 53.03 379.15 52.56C378.36 52.28 377.85 51.94 377.49 51.44C377.07 50.87 376.87 49.99 376.92 49.32V49.28C376.93 49.16 376.95 48.97 376.88 48.9C376.87 48.88 376.84 48.86 376.78 48.86C376.59 48.86 376.14 49.82 376.02 51.1C375.99 51.43 375.99 51.71 375.99 52.03C375.99 52.5 376.02 52.97 376.06 53.43C376.19 54.7 376.61 55.8 377.33 56.69C378.04 57.57 379.16 58.1 380.69 58.25C380.79 58.25 381.61 58.3 382.29 58.27C385.03 58.13 387.03 56.32 387.05 56.3C388.18 55.26 388.73 54.06 388.94 53.61L388.96 53.57C389.14 53.19 389.29 52.79 389.41 52.38C389.62 51.67 389.79 50.99 389.89 50.36C389.91 50.26 389.99 50.19 390.09 50.19C390.29 50.19 391.7 50.19 393.06 50.19C394.42 50.19 395.83 50.19 396.03 50.19C396.03 50.19 406.2 50.19 412.26 50.19C413.85 50.19 415.05 49.78 415.82 48.96C416.59 48.15 416.95 46.94 416.87 45.39V45.4ZM387.8 45.44C387.77 45.51 387.71 45.55 387.64 45.55H383.34C383.34 45.55 383.26 45.55 383.22 45.55C382.38 45.55 381.46 45.53 380.94 45.03C380.57 44.67 380.6 44.02 380.65 43.56C380.7 43.15 380.86 42.37 381.09 41.93C381.22 41.69 381.27 41.64 381.52 41.72C382.83 42.15 384.32 42.95 385.09 43.39C386.14 43.99 387.01 44.6 387.75 45.23C387.81 45.28 387.83 45.35 387.8 45.42V45.44ZM414.37 45.44C414.34 45.51 414.28 45.55 414.21 45.55H409.91C409.91 45.55 409.83 45.55 409.79 45.55C408.95 45.55 408.03 45.53 407.51 45.03C407.14 44.67 407.17 44.02 407.22 43.56C407.27 43.15 407.43 42.37 407.66 41.93C407.79 41.69 407.84 41.64 408.09 41.72C409.4 42.15 410.89 42.95 411.66 43.39C412.71 43.99 413.58 44.6 414.32 45.23C414.38 45.28 414.4 45.35 414.37 45.42V45.44Z" fill="black"/>
<path d="M409.51 36.03C409.6 36.16 409.68 36.12 409.79 35.99C410.22 35.6 411.48 34.32 412.05 33.74C412.18 33.61 412.18 33.55 412.06 33.4C411.61 32.76 410.39 31.37 409.77 31.04C409.6 30.95 409.58 30.95 409.41 31.07C408.71 31.6 407.82 32.51 407.29 33.13C407.03 33.43 407.02 33.49 407.13 33.58C407.77 34.09 408.78 35.07 409.51 36.03Z" fill="black"/>
<path d="M365.67 42.44C365.67 42.34 365.69 42.18 365.64 42.12C365.63 42.11 365.61 42.09 365.56 42.09C365.42 42.09 365.02 42.9 364.91 44.02C364.88 44.31 364.88 44.55 364.89 44.83C364.89 45.24 364.91 45.64 364.95 46.04C365.06 47.14 365.43 48.09 366.04 48.86C366.65 49.62 367.63 50.08 368.94 50.21C368.95 50.21 369.71 50.25 370.32 50.23C372.69 50.12 374.42 48.55 374.44 48.53C375.41 47.64 375.89 46.61 376.09 46.17C376.24 45.84 376.37 45.49 376.48 45.14C376.86 43.87 377.04 42.75 377.02 41.79C376.99 40.68 376.69 39.69 376.12 38.85C375.88 38.49 375.63 38.18 375.37 37.88L375.35 37.86C375.21 37.71 374.79 37.24 374.12 36.72C374.01 36.64 373.9 36.56 373.79 36.48C373.68 36.4 373.57 36.33 373.46 36.25C373.35 36.18 373.24 36.11 373.13 36.04C373.02 35.97 372.92 35.91 372.81 35.84C372.71 35.78 372.6 35.72 372.49 35.66C372.39 35.6 372.28 35.54 372.18 35.49C372.08 35.44 371.98 35.38 371.88 35.33C371.78 35.28 371.69 35.23 371.59 35.18C371.56 35.16 371.51 35.15 371.46 35.13C371.4 35.11 371.33 35.12 371.29 35.16C370.91 35.52 370.48 36.04 370.08 36.76C369.44 37.9 369.26 38.97 369.22 39.64C369.22 39.71 369.25 39.77 369.31 39.8L376.24 43.27C376.3 43.3 376.33 43.35 376.34 43.41C376.35 43.48 376.33 43.54 376.28 43.59C374.39 45.4 370.42 46.13 367.61 45.18C366.98 44.97 366.51 44.67 366.16 44.2C365.68 43.54 365.66 42.81 365.67 42.47V42.44Z" fill="black"/>
<path d="M276.92 56.75C277.01 56.88 277.09 56.84 277.2 56.71C277.63 56.32 278.89 55.04 279.46 54.46C279.59 54.33 279.59 54.27 279.47 54.12C279.02 53.48 277.8 52.09 277.18 51.76C277.01 51.67 276.99 51.67 276.82 51.79C276.12 52.32 275.23 53.23 274.7 53.85C274.44 54.15 274.43 54.21 274.54 54.3C275.18 54.81 276.19 55.79 276.92 56.75Z" fill="black"/>
<path d="M281.41 56.75C281.5 56.88 281.58 56.84 281.69 56.71C282.12 56.32 283.38 55.04 283.95 54.46C284.08 54.33 284.08 54.27 283.96 54.12C283.51 53.48 282.29 52.09 281.67 51.76C281.5 51.67 281.48 51.67 281.31 51.79C280.61 52.32 279.72 53.23 279.19 53.85C278.93 54.15 278.92 54.21 279.03 54.3C279.67 54.81 280.68 55.79 281.41 56.75Z" fill="black"/>
<path d="M281.13 15.93C280.74 14.99 280.17 14.16 279.44 13.47C278.72 12.79 277.86 12.27 276.88 11.91C275.9 11.55 274.82 11.37 273.67 11.37C272.52 11.37 271.43 11.57 270.37 11.98C269.29 12.39 268.32 12.98 267.48 13.74C266.6 14.54 265.91 15.49 265.43 16.56C264.92 17.71 264.65 18.98 264.65 20.33C264.65 21.48 264.87 22.57 265.29 23.58C265.7 24.55 266.29 25.42 267.05 26.15C268.58 27.62 270.67 28.43 272.93 28.43C274.05 28.43 275.16 28.21 276.21 27.77C277.26 27.33 278.21 26.7 279.02 25.89C279.86 25.05 280.52 24.07 280.98 22.96C281.47 21.78 281.71 20.5 281.71 19.15C281.71 18 281.51 16.93 281.11 15.96L281.13 15.93ZM268.91 18.3C268.91 16.98 269.16 15.89 269.63 15.14C270.15 14.31 270.95 13.89 272.01 13.89C272.64 13.89 273.3 14.06 273.95 14.39C274.61 14.73 275.24 15.23 275.77 15.84C276.34 16.5 276.8 17.27 277.12 18.13C277.47 19.07 277.65 20.08 277.65 21.14C277.65 22.35 277.38 23.45 276.89 24.23C276.63 24.65 276.31 24.97 275.94 25.19C275.54 25.43 275.07 25.55 274.55 25.55C273.59 25.55 272.71 25.3 271.95 24.8C271.28 24.36 270.69 23.73 270.21 22.93C269.26 21.35 268.92 19.5 268.92 18.3H268.91Z" fill="black"/>
<path d="M299.59 15.93C299.2 14.99 298.63 14.16 297.9 13.47C297.18 12.79 296.32 12.27 295.34 11.91C294.36 11.55 293.28 11.37 292.13 11.37C290.98 11.37 289.89 11.57 288.83 11.98C287.75 12.39 286.78 12.98 285.94 13.74C285.06 14.54 284.37 15.49 283.89 16.56C283.38 17.71 283.11 18.98 283.11 20.33C283.11 21.48 283.33 22.57 283.75 23.58C284.16 24.55 284.75 25.42 285.51 26.15C287.04 27.62 289.13 28.43 291.39 28.43C292.51 28.43 293.62 28.21 294.67 27.77C295.72 27.33 296.67 26.7 297.48 25.89C298.32 25.05 298.98 24.07 299.44 22.96C299.93 21.78 300.17 20.5 300.17 19.15C300.17 18 299.97 16.93 299.57 15.96L299.59 15.93ZM293 25.55C292.04 25.55 291.16 25.3 290.4 24.8C289.73 24.36 289.14 23.73 288.66 22.93C287.71 21.35 287.37 19.5 287.37 18.3C287.37 16.98 287.62 15.89 288.09 15.14C288.61 14.31 289.41 13.89 290.47 13.89C291.1 13.89 291.76 14.06 292.41 14.39C293.07 14.73 293.7 15.23 294.23 15.84C294.8 16.5 295.26 17.27 295.58 18.13C295.93 19.07 296.11 20.08 296.11 21.14C296.11 22.35 295.84 23.45 295.35 24.23C295.09 24.65 294.77 24.97 294.4 25.19C294 25.43 293.53 25.55 293.01 25.55H293Z" fill="black"/>
<path d="M333.93 20.94C333.62 20.4 333.17 19.95 332.55 19.54C331.46 18.82 330 18.37 328.47 17.91C328.12 17.8 327.76 17.69 327.4 17.58C326.29 17.25 325.24 16.93 324.5 16.51C323.79 16.1 323.46 15.63 323.46 15.02C323.46 14.79 323.51 14.34 323.88 13.96C324.32 13.5 324.94 13.27 325.71 13.27C326.58 13.27 327.64 13.58 328.55 14.1C330.23 15.06 331.38 16.24 332.27 17.91V17.93C332.35 18.06 332.49 18.14 332.64 18.14C332.66 18.14 332.68 18.14 332.7 18.14C332.87 18.11 333 17.99 333.03 17.82L333.86 13.98C333.89 13.81 333.82 13.64 333.67 13.55C332.57 12.85 331.37 12.32 330.12 11.96C328.91 11.61 327.61 11.44 326.25 11.44C323.81 11.44 322.31 12.33 321.48 13.09C320.43 14.04 319.83 15.33 319.83 16.62C319.83 17.45 319.98 18.15 320.3 18.75C320.6 19.33 321.04 19.82 321.66 20.25C322.79 21.05 324.41 21.61 326.41 22.25C327.91 22.71 329.03 23.06 329.73 23.47C330.04 23.65 330.26 23.85 330.4 24.05C330.53 24.25 330.59 24.49 330.59 24.79C330.59 25.19 330.37 25.56 329.97 25.85C329.51 26.18 328.83 26.37 328.07 26.37C326.69 26.37 325.24 25.87 323.98 24.97C322.39 23.83 321.43 22.63 320.87 21.08V21.05C320.8 20.89 320.65 20.78 320.48 20.78C320.48 20.78 320.46 20.78 320.45 20.78C320.27 20.79 320.12 20.92 320.09 21.1L319.15 25.13C319.12 25.28 319.17 25.44 319.28 25.54C320.38 26.47 321.65 27.18 323.06 27.67C324.41 28.14 325.83 28.37 327.28 28.37C328.09 28.37 328.95 28.25 329.75 28.04C330.6 27.81 331.37 27.48 332.04 27.05C332.77 26.58 333.35 26.02 333.76 25.38C334.22 24.67 334.45 23.88 334.45 23.03C334.45 22.24 334.28 21.56 333.93 20.96V20.94Z" fill="black"/>
<path d="M409.94 14.66H414.66C415.12 14.66 415.47 14.67 415.8 14.71C415.91 14.72 416.02 14.74 416.14 14.76C416.17 14.76 416.2 14.77 416.23 14.78C416.3 14.8 416.37 14.82 416.44 14.84C416.45 14.84 416.46 14.84 416.47 14.85C416.49 14.85 416.51 14.86 416.53 14.87C416.54 14.87 416.56 14.87 416.58 14.87C416.58 14.87 416.6 14.87 416.62 14.87C416.66 14.87 416.71 14.86 416.74 14.84C416.83 14.79 416.89 14.7 416.89 14.6V12.9V12.26C416.89 12.19 416.89 12.12 416.85 12.06C416.78 11.93 416.65 11.85 416.5 11.85H405.83C405.68 11.85 405.55 11.93 405.48 12.06C405.4 12.21 405.45 12.35 405.48 12.46C405.48 12.48 405.49 12.5 405.5 12.52C405.54 12.65 405.57 12.78 405.6 12.9C405.61 12.95 405.62 13.01 405.64 13.06C405.68 13.27 405.72 13.48 405.74 13.68C405.79 14.21 405.82 14.76 405.83 15.71V15.96C405.83 16.24 405.83 16.51 405.84 16.79C405.84 16.95 405.86 17.12 405.9 17.28C406.22 18.51 407.62 19.13 408.78 19.36C408.87 19.38 408.86 19.51 408.77 19.51C408.42 19.52 408.07 19.56 407.71 19.61C406.89 19.73 406.43 20.15 406.24 20.34C405.91 20.67 405.85 21.2 405.84 21.91C405.84 22.05 405.84 22.32 405.84 22.47C405.84 22.56 405.84 22.81 405.84 22.9C405.84 22.91 405.84 22.92 405.84 22.93V23.08C405.84 23.17 405.84 23.26 405.84 23.33V23.42V24.09C405.83 24.97 405.81 25.49 405.76 26C405.74 26.2 405.71 26.41 405.66 26.62C405.65 26.67 405.64 26.73 405.62 26.78C405.59 26.91 405.55 27.03 405.52 27.16C405.52 27.18 405.51 27.2 405.5 27.22C405.46 27.33 405.41 27.47 405.5 27.62C405.57 27.75 405.7 27.83 405.85 27.83H416.52C416.67 27.83 416.8 27.75 416.87 27.62C416.9 27.56 416.92 27.49 416.91 27.42V26.65V25.09C416.91 24.99 416.85 24.9 416.76 24.85C416.72 24.83 416.68 24.82 416.64 24.82C416.63 24.82 416.61 24.82 416.6 24.82C416.59 24.82 416.57 24.82 416.55 24.82C416.54 24.82 416.52 24.83 416.5 24.84C416.49 24.84 416.48 24.84 416.47 24.85C416.4 24.87 416.33 24.89 416.26 24.91C416.23 24.91 416.2 24.92 416.17 24.93C416.06 24.95 415.94 24.97 415.83 24.98C415.5 25.01 415.15 25.03 414.69 25.03H409.97C409.97 25.03 409.89 25 409.87 24.96V23L409.86 21.13V21.01C409.86 20.95 409.91 20.9 409.98 20.9H410.02H413.64C414.05 20.9 414.36 20.91 414.65 20.94C414.75 20.94 414.85 20.97 414.95 20.99C414.98 20.99 415 21 415.03 21.01C415.09 21.02 415.15 21.04 415.21 21.06C415.21 21.06 415.23 21.06 415.24 21.06C415.26 21.06 415.27 21.07 415.29 21.08C415.3 21.08 415.32 21.08 415.33 21.08C415.33 21.08 415.35 21.08 415.37 21.08C415.41 21.08 415.45 21.08 415.49 21.05C415.57 21.01 415.63 20.92 415.63 20.82V19.28V18.62C415.63 18.55 415.63 18.49 415.59 18.43C415.53 18.31 415.41 18.24 415.27 18.24H409.99C409.93 18.24 409.88 18.19 409.88 18.13V18.1C409.88 18.03 409.88 16.34 409.88 14.76C409.88 14.7 409.93 14.65 409.99 14.65L409.94 14.66Z" fill="black"/>
<path d="M351.33 14.82C351.03 14.2 350.58 13.67 349.99 13.24C348.94 12.46 347.4 12 345.77 11.96C345.15 11.95 344.54 11.94 344.08 11.94C343.82 11.94 343.56 11.94 343.3 11.94C343.04 11.94 342.78 11.94 342.52 11.94H338.89C338.89 11.94 338.81 11.94 338.79 11.94H337.29C337.14 11.94 337 12.02 336.93 12.16C336.85 12.32 336.9 12.46 336.93 12.57C336.93 12.59 336.94 12.61 336.95 12.63C336.99 12.76 337.03 12.9 337.06 13.03C337.07 13.09 337.09 13.14 337.1 13.2C337.15 13.42 337.18 13.64 337.2 13.85C337.26 14.47 337.29 15.14 337.29 16.01V23.74C337.29 24.61 337.26 25.28 337.2 25.9C337.18 26.11 337.14 26.33 337.1 26.55C337.09 26.61 337.08 26.66 337.06 26.72C337.03 26.85 336.99 26.99 336.95 27.12C336.95 27.14 336.94 27.16 336.93 27.18C336.89 27.29 336.84 27.44 336.93 27.59C337 27.73 337.14 27.81 337.29 27.81C337.8 27.81 338.54 27.81 338.74 27.81H338.8H341.46C341.61 27.81 341.75 27.73 341.82 27.59C341.86 27.51 341.87 27.43 341.86 27.34C341.86 27.32 341.86 27.29 341.85 27.27C341.85 27.24 341.83 27.21 341.82 27.17C341.82 27.15 341.81 27.13 341.8 27.11C341.76 26.98 341.72 26.84 341.69 26.71C341.68 26.65 341.66 26.6 341.65 26.54C341.65 26.53 341.59 26.24 341.55 25.89C341.52 25.6 341.47 24.33 341.47 23.28V21.92C341.47 21.92 341.49 21.88 341.51 21.88C341.51 21.88 341.51 21.88 341.52 21.88C342.66 22.3 343.94 22.53 345.23 22.53C346.01 22.53 346.79 22.45 347.54 22.29C349.27 21.92 350.45 21.12 351.13 19.84C351.57 19.02 351.8 18.07 351.8 17.02C351.8 16.19 351.64 15.44 351.33 14.79V14.82ZM346.94 18.78C346.65 19.27 346.16 19.65 345.56 19.86C345.21 19.98 344.83 20.04 344.43 20.04C344.43 20.04 344.11 20.04 343.77 19.99C342.88 19.85 341.96 19.31 341.58 19.08C341.51 19.04 341.47 18.96 341.47 18.88C341.47 17.29 341.47 15.7 341.47 14.1C341.47 13.99 341.55 13.89 341.67 13.87C342.71 13.7 343.62 13.74 344.12 13.8C344.51 13.85 344.74 13.91 344.91 13.96C345.5 14.13 346.01 14.43 346.38 14.8C346.94 15.37 347.27 16.2 347.3 17.14C347.32 17.78 347.2 18.34 346.94 18.78Z" fill="black"/>
<path d="M403.55 27.08C403.49 26.89 403.33 26.79 403.27 26.76C402.46 26.32 401.71 25.78 401.07 25.18C399.92 24.1 399.21 23.15 398.69 22.45C398.53 22.24 398.39 22.05 398.26 21.89L397.86 21.4C398.93 21.05 399.86 20.45 400.55 19.67C401.38 18.74 401.82 17.61 401.82 16.42C401.82 15.67 401.72 15.05 401.5 14.53C401.25 13.92 400.85 13.44 400.29 13.06C399.7 12.66 398.95 12.37 397.97 12.18C396.97 11.98 395.77 11.89 394.29 11.89H387.49C387.35 11.89 387.22 11.98 387.18 12.12C387.15 12.22 387.17 12.32 387.22 12.41V12.43C387.3 12.53 387.37 12.63 387.41 12.74C387.44 12.84 387.48 12.95 387.5 13.07C387.59 13.46 387.7 14.3 387.69 16.07V23.82C387.69 25.15 387.6 25.98 387.53 26.45C387.53 26.5 387.51 26.55 387.5 26.6C387.49 26.66 387.48 26.71 387.46 26.77C387.43 26.9 387.39 27.04 387.35 27.17C387.35 27.19 387.34 27.21 387.33 27.24C387.29 27.35 387.25 27.47 387.33 27.6C387.39 27.71 387.5 27.78 387.63 27.78H389.04H391.75C391.88 27.78 391.99 27.71 392.05 27.6C392.08 27.54 392.09 27.47 392.08 27.39C392.08 27.37 392.08 27.35 392.07 27.33C392.07 27.3 392.05 27.27 392.04 27.23C392.04 27.21 392.03 27.19 392.02 27.16C391.98 27.02 391.94 26.89 391.91 26.76C391.9 26.7 391.88 26.65 391.87 26.59V26.54C391.82 26.29 391.78 26.05 391.76 25.81C391.72 25.41 391.7 24.99 391.69 24.51C391.69 24.31 391.69 24.12 391.69 23.92V21.16C391.69 21.16 391.71 21.09 391.73 21.07C391.76 21.05 391.79 21.05 391.83 21.06C392.32 21.23 392.9 21.6 393.6 22.18C394.77 23.17 396.33 25.59 397.15 26.94C397.26 27.12 397.29 27.22 397.33 27.31C397.35 27.36 397.36 27.41 397.37 27.46C397.39 27.55 397.4 27.63 397.47 27.7C397.53 27.75 397.6 27.78 397.7 27.79H403.13C403.27 27.79 403.39 27.73 403.47 27.61C403.57 27.47 403.6 27.27 403.54 27.1L403.55 27.08ZM397.29 18.8C396.99 19.3 396.49 19.69 395.88 19.91C395.14 20.16 394.52 20.11 394.06 20.04C393.04 19.9 392.27 19.45 391.8 19.1C391.74 19.06 391.71 18.99 391.71 18.91C391.71 17.29 391.71 15.67 391.71 14.04C391.71 13.93 391.79 13.83 391.9 13.81C392.07 13.78 392.27 13.74 392.5 13.72C393.41 13.62 395.45 13.4 396.72 14.75C397.55 15.63 397.65 16.75 397.66 17.13C397.68 17.78 397.55 18.36 397.29 18.8Z" fill="black"/>
<path d="M316.66 15.46C316.26 14.63 315.66 13.93 314.9 13.38C313.59 12.44 311.76 11.94 309.6 11.94H305.49H304.8H303.67H302.29C302.14 11.94 302 12.02 301.93 12.16C301.85 12.32 301.9 12.46 301.93 12.57C301.93 12.59 301.94 12.61 301.95 12.63C301.99 12.76 302.03 12.9 302.06 13.03C302.07 13.09 302.09 13.14 302.1 13.2C302.15 13.42 302.18 13.64 302.2 13.85C302.26 14.47 302.29 15.14 302.29 16.01V23.74C302.29 24.61 302.26 25.28 302.2 25.9C302.18 26.11 302.14 26.33 302.1 26.55C302.09 26.61 302.08 26.66 302.06 26.72C302.03 26.85 301.99 26.99 301.95 27.12C301.95 27.14 301.94 27.16 301.93 27.18C301.89 27.29 301.84 27.44 301.93 27.59C302 27.73 302.14 27.81 302.29 27.81H303.8H305.12H308.67C310.01 27.81 311.26 27.55 312.38 27.02C313.43 26.53 314.34 25.83 315.1 24.93C315.82 24.08 316.37 23.09 316.76 21.97C317.13 20.89 317.32 19.74 317.32 18.56C317.32 17.38 317.1 16.32 316.67 15.43L316.66 15.46ZM306.66 24.94C306.66 21.45 306.66 17.97 306.66 14.48C306.66 14.38 306.73 14.29 306.82 14.26C307.22 14.13 307.67 14.03 308.19 14.03C308.27 14.03 308.35 14.03 308.43 14.03H308.44C309.04 14.03 309.6 14.14 310.11 14.37C310.65 14.61 311.13 14.96 311.52 15.43C311.95 15.94 312.29 16.57 312.52 17.31C312.78 18.13 312.91 19.09 312.91 20.15C312.91 21.01 312.83 21.8 312.67 22.5C312.51 23.2 312.27 23.81 311.96 24.3C311.31 25.32 310.36 25.84 309.11 25.84C308.52 25.84 308.01 25.76 307.56 25.59C307.4 25.53 307.25 25.46 307.25 25.46C307.03 25.35 306.86 25.23 306.73 25.13C306.67 25.09 306.64 25.02 306.64 24.94H306.66Z" fill="black"/>
<path d="M369.77 27.13C369.73 27 369.69 26.86 369.66 26.73C369.65 26.67 369.63 26.62 369.62 26.56C369.57 26.34 369.54 26.12 369.52 25.91C369.46 25.29 369.43 24.62 369.43 23.75V16.02C369.43 15.15 369.46 14.48 369.52 13.86C369.54 13.65 369.58 13.43 369.62 13.21C369.63 13.15 369.64 13.1 369.66 13.04C369.69 12.91 369.73 12.77 369.77 12.64C369.77 12.62 369.78 12.6 369.79 12.58C369.83 12.47 369.88 12.32 369.79 12.17C369.72 12.03 369.58 11.95 369.43 11.95C368.92 11.95 368.18 11.95 367.98 11.95H367.92H365.26C365.11 11.95 364.97 12.03 364.9 12.17C364.86 12.25 364.85 12.33 364.86 12.42C364.86 12.44 364.86 12.46 364.87 12.49C364.87 12.52 364.89 12.55 364.9 12.59C364.9 12.61 364.91 12.63 364.92 12.65C364.96 12.78 365 12.92 365.03 13.05C365.04 13.11 365.06 13.16 365.07 13.22C365.12 13.44 365.15 13.66 365.17 13.87C365.23 14.49 365.26 15.16 365.26 16.03V16.83C365.26 17.28 365.26 17.69 365.26 18.24C365.26 18.25 365.24 18.27 365.22 18.27H358.39C358.39 18.27 358.36 18.26 358.35 18.24C358.35 17.82 358.35 17.48 358.35 17.14C358.35 16.8 358.35 16.45 358.35 16.03C358.35 15.34 358.36 14.61 358.43 13.87C358.45 13.66 358.49 13.44 358.53 13.22C358.54 13.16 358.55 13.11 358.57 13.05C358.6 12.92 358.64 12.78 358.68 12.65C358.68 12.63 358.69 12.61 358.7 12.59C358.71 12.56 358.72 12.52 358.73 12.49C358.73 12.47 358.74 12.45 358.74 12.42C358.75 12.33 358.74 12.25 358.7 12.18C358.63 12.04 358.49 11.96 358.34 11.96H357.01H356.09C355.85 11.96 355.74 11.96 355.67 11.96H354.16C354.01 11.96 353.87 12.04 353.8 12.18C353.72 12.34 353.77 12.48 353.8 12.59C353.8 12.61 353.81 12.63 353.82 12.65C353.86 12.78 353.9 12.92 353.93 13.05C353.94 13.11 353.96 13.16 353.97 13.22C354.02 13.44 354.05 13.66 354.07 13.87C354.13 14.5 354.16 15.16 354.16 16.03V23.76C354.16 24.63 354.13 25.3 354.07 25.92C354.05 26.13 354.01 26.35 353.97 26.57C353.96 26.63 353.95 26.68 353.93 26.74C353.9 26.87 353.86 27.01 353.82 27.14C353.82 27.16 353.81 27.18 353.8 27.2C353.76 27.31 353.71 27.46 353.8 27.61C353.87 27.75 354.01 27.83 354.16 27.83C354.67 27.83 355.41 27.83 355.61 27.83H355.67H358.33C358.48 27.83 358.62 27.75 358.69 27.61C358.73 27.53 358.74 27.45 358.73 27.36C358.73 27.34 358.73 27.31 358.72 27.29C358.72 27.26 358.7 27.23 358.69 27.19C358.69 27.17 358.68 27.15 358.67 27.13C358.63 27 358.59 26.86 358.56 26.73C358.55 26.67 358.53 26.62 358.52 26.56C358.47 26.34 358.44 26.12 358.42 25.91C358.36 25.28 358.33 24.62 358.33 23.75C358.33 22.98 358.33 21.61 358.33 21.2V21.08V20.95C358.33 20.93 358.35 20.91 358.37 20.91H365.19C365.19 20.91 365.23 20.93 365.23 20.95C365.23 21 365.23 21.04 365.23 21.09V23.76C365.23 24.63 365.2 25.3 365.14 25.92C365.12 26.13 365.08 26.35 365.04 26.57C365.03 26.63 365.02 26.68 365 26.74C364.97 26.87 364.93 27.01 364.89 27.14C364.89 27.16 364.88 27.18 364.87 27.2C364.86 27.23 364.85 27.27 364.84 27.3C364.84 27.32 364.83 27.35 364.83 27.37C364.82 27.46 364.83 27.54 364.87 27.61C364.94 27.75 365.08 27.83 365.23 27.83H366.56H367.48C367.72 27.83 367.83 27.83 367.9 27.83H369.41C369.56 27.83 369.7 27.75 369.77 27.61C369.85 27.45 369.8 27.31 369.77 27.2C369.77 27.18 369.76 27.16 369.75 27.14L369.77 27.13Z" fill="black"/>
<path d="M263.58 11.83V11.2C263.58 11.13 263.58 11.06 263.54 11C263.47 10.87 263.34 10.79 263.19 10.79H252.22C252.07 10.79 251.94 10.87 251.87 11C251.79 11.15 251.84 11.29 251.87 11.4C251.87 11.42 251.88 11.44 251.89 11.46C251.93 11.59 251.96 11.72 251.99 11.84C252 11.89 252.01 11.95 252.03 12C252.07 12.21 252.11 12.42 252.13 12.62C252.18 13.17 252.21 14.97 252.22 15.72V15.94V16.3C252.22 16.48 252.22 16.63 252.22 16.74C252.22 18.3 253.8 19.09 255.17 19.36C255.26 19.38 255.25 19.51 255.16 19.51C254.81 19.52 254.46 19.56 254.1 19.61C253.28 19.73 252.82 20.15 252.63 20.34C252.3 20.67 252.24 21.18 252.23 21.87C252.23 22.06 252.23 22.26 252.23 22.47C252.23 22.61 252.23 22.75 252.23 22.9C252.23 22.91 252.23 22.92 252.23 22.93V23.08C252.23 23.17 252.23 23.26 252.23 23.33V23.42V23.51V25.06C252.22 25.39 252.2 25.7 252.17 25.99C252.15 26.19 252.12 26.4 252.07 26.61C252.06 26.66 252.05 26.72 252.03 26.77C252 26.9 251.97 27.02 251.93 27.15C251.93 27.17 251.92 27.19 251.91 27.21C251.87 27.32 251.83 27.45 251.91 27.6C251.98 27.73 252.12 27.82 252.28 27.82H252.81H252.94H256.35H256.36C256.38 27.82 256.39 27.82 256.41 27.82C256.56 27.82 256.69 27.74 256.76 27.61C256.8 27.54 256.81 27.46 256.8 27.37C256.8 27.35 256.8 27.33 256.79 27.3C256.79 27.27 256.77 27.24 256.76 27.21C256.76 27.19 256.75 27.17 256.74 27.15C256.7 27.02 256.67 26.89 256.64 26.77C256.63 26.72 256.62 26.66 256.6 26.61C256.6 26.61 256.54 26.32 256.5 25.99C256.48 25.77 256.44 25.24 256.42 24.48C256.42 24.31 256.42 24.13 256.42 23.94V21.01C256.42 20.95 256.46 20.9 256.52 20.9H256.56H260.34C260.75 20.9 261.06 20.91 261.35 20.94C261.45 20.94 261.55 20.97 261.65 20.99C261.68 20.99 261.7 21 261.73 21.01C261.79 21.02 261.85 21.04 261.91 21.06C261.91 21.06 261.93 21.06 261.94 21.06C261.96 21.06 261.97 21.07 261.99 21.08C262 21.08 262.02 21.08 262.03 21.08C262.03 21.08 262.05 21.08 262.07 21.08C262.11 21.08 262.15 21.08 262.19 21.05C262.27 21.01 262.33 20.92 262.33 20.82V19.28V18.62C262.33 18.55 262.33 18.49 262.29 18.43C262.23 18.31 262.11 18.24 261.97 18.24H256.55C256.47 18.24 256.41 18.18 256.41 18.1V13.71C256.41 13.63 256.47 13.57 256.55 13.57H261.41C261.87 13.57 262.22 13.58 262.55 13.62C262.66 13.63 262.77 13.65 262.89 13.67C262.92 13.67 262.95 13.68 262.98 13.69C263.05 13.71 263.12 13.73 263.19 13.75C263.2 13.75 263.21 13.75 263.22 13.76C263.24 13.76 263.26 13.77 263.28 13.78C263.29 13.78 263.31 13.78 263.33 13.78C263.34 13.78 263.35 13.78 263.37 13.78C263.41 13.78 263.46 13.77 263.49 13.75C263.58 13.7 263.64 13.61 263.64 13.51V11.81L263.58 11.83Z" fill="black"/>
<path d="M377.32 14.66H382.04C382.5 14.66 382.85 14.67 383.18 14.71C383.29 14.72 383.4 14.74 383.52 14.76C383.55 14.76 383.58 14.77 383.61 14.78C383.68 14.8 383.75 14.82 383.82 14.84C383.83 14.84 383.84 14.84 383.85 14.85C383.87 14.85 383.89 14.86 383.91 14.87C383.92 14.87 383.94 14.87 383.96 14.87C383.96 14.87 383.98 14.87 384 14.87C384.04 14.87 384.09 14.86 384.12 14.84C384.21 14.79 384.27 14.7 384.27 14.6V12.9V12.26C384.27 12.19 384.27 12.12 384.23 12.06C384.16 11.93 384.03 11.85 383.88 11.85H373.21C373.06 11.85 372.93 11.93 372.86 12.06C372.78 12.21 372.83 12.35 372.86 12.46C372.86 12.48 372.87 12.5 372.88 12.52C372.92 12.65 372.95 12.78 372.98 12.9C372.99 12.95 373 13.01 373.02 13.06C373.06 13.27 373.1 13.48 373.12 13.68C373.17 14.21 373.2 14.76 373.21 15.71V15.96C373.21 16.24 373.21 16.51 373.22 16.79C373.22 16.95 373.24 17.12 373.28 17.28C373.6 18.51 375 19.13 376.16 19.36C376.25 19.38 376.24 19.51 376.15 19.51C375.8 19.52 375.45 19.56 375.09 19.61C374.27 19.73 373.81 20.15 373.62 20.34C373.29 20.67 373.23 21.2 373.22 21.91C373.22 22.05 373.22 22.32 373.22 22.47C373.22 22.56 373.22 22.81 373.22 22.9C373.22 22.91 373.22 22.92 373.22 22.93V23.08C373.22 23.17 373.22 23.26 373.22 23.33V23.42V24.09C373.21 24.97 373.19 25.49 373.14 26C373.12 26.2 373.09 26.41 373.04 26.62C373.03 26.67 373.02 26.73 373 26.78C372.97 26.91 372.93 27.03 372.9 27.16C372.9 27.18 372.89 27.2 372.88 27.22C372.84 27.33 372.79 27.47 372.88 27.62C372.95 27.75 373.08 27.83 373.23 27.83H383.9C384.05 27.83 384.18 27.75 384.25 27.62C384.28 27.56 384.3 27.49 384.29 27.42V26.65V25.09C384.29 24.99 384.23 24.9 384.14 24.85C384.1 24.83 384.06 24.82 384.02 24.82C384.01 24.82 383.99 24.82 383.98 24.82C383.97 24.82 383.95 24.82 383.93 24.82C383.92 24.82 383.9 24.83 383.88 24.84C383.87 24.84 383.86 24.84 383.85 24.85C383.78 24.87 383.71 24.89 383.64 24.91C383.61 24.91 383.58 24.92 383.55 24.93C383.44 24.95 383.32 24.97 383.21 24.98C382.88 25.01 382.53 25.03 382.07 25.03H377.35C377.35 25.03 377.27 25 377.25 24.96V23L377.24 21.13V21.01C377.24 20.95 377.29 20.9 377.36 20.9H377.4H381.02C381.43 20.9 381.74 20.91 382.03 20.94C382.13 20.94 382.23 20.97 382.33 20.99C382.36 20.99 382.38 21 382.41 21.01C382.47 21.02 382.53 21.04 382.59 21.06C382.59 21.06 382.61 21.06 382.62 21.06C382.64 21.06 382.65 21.07 382.67 21.08C382.68 21.08 382.7 21.08 382.71 21.08C382.71 21.08 382.73 21.08 382.75 21.08C382.79 21.08 382.83 21.08 382.87 21.05C382.95 21.01 383.01 20.92 383.01 20.82V19.28V18.62C383.01 18.55 383.01 18.49 382.97 18.43C382.91 18.31 382.79 18.24 382.65 18.24H377.37C377.31 18.24 377.26 18.19 377.26 18.13V18.1C377.26 18.03 377.26 16.34 377.26 14.76C377.26 14.7 377.31 14.65 377.37 14.65L377.32 14.66Z" fill="black"/>
</g>
<defs>
<clipPath id="clip0_4_159">
<rect width="416.88" height="66.18" fill="white"/>
</clipPath>
</defs>
</svg>
